<svg width="720" height="671" viewBox="0 0 720 671" fill="none" xmlns="http://www.w3.org/2000/svg">
<path d="M309.731 24.3674C145.731 -36.8326 87.3975 31.5341 78.7308 73.3674C67.5641 122.367 24.9308 230.667 -56.2692 271.867C-157.769 323.367 -24.7692 470.367 51.7308 480.867C128.231 491.367 144 508.5 193.5 569.5C243 630.5 294 684.854 386.5 666.5C477.5 648.444 468.231 583.367 574.731 583.367C681.231 583.367 761 465.5 697 388C633 310.5 638 275.5 674.5 171.5C711 67.5 692.731 12.3674 614.731 24.3674C536.731 36.3674 514.731 100.867 309.731 24.3674Z" fill="#B8B8FF"/>
</svg>
