<svg width="642" height="684" viewBox="0 0 642 684" fill="none" xmlns="http://www.w3.org/2000/svg">
<path fill-rule="evenodd" clip-rule="evenodd" d="M498.967 424.866C488.06 429.131 475.442 435.532 474.272 447.185C489.088 435.786 507.391 428.983 526.055 427.938C513.161 444.184 496.879 457.729 478.558 467.451C462.104 476.182 441.273 485.494 439.862 504.067C457.532 483.025 484.701 470.286 512.178 470.159C494.599 495.906 466.411 514.169 435.728 519.69C436.781 527.602 470.801 544.548 480.71 547.809C487.767 578.126 490.824 617.442 497.88 647.759C499.617 655.22 501.146 663.792 496.577 669.941C492.045 676.04 483.486 677.09 475.907 677.628C446.033 679.752 405.16 681.876 375.286 683.999C371.709 667.795 368.133 651.591 364.556 635.386C314.165 640.065 98.1384 689.569 58.4942 663.599C-94.5449 563.345 100.607 529.194 104.801 407.135C105.762 379.148 21.6158 330.226 22.9518 301.628C23.8242 282.954 26.7149 264.713 35.9541 248.678C45.1932 232.644 59.8334 220.292 75.7456 210.844C53.8384 205.213 37.2447 183.375 37.6886 160.76C38.1326 138.145 55.5706 116.975 77.6819 112.209C67.2569 99.7853 50.8414 94.0912 38.8509 83.1712C24.8829 70.4503 17.8638 49.93 22.9518 31.7355C28.0398 13.541 45.9541 -0.774139 64.8294 0.0324868C80.3338 0.695058 93.978 10.5013 104.801 21.6233C121.585 38.8722 134.068 60.2757 140.817 83.3776C145.315 98.7758 161.801 106.609 175.724 114.578C189.646 122.547 204.105 136.428 200.182 151.982C194.996 130.697 272.074 156.05 341.978 162.257C351.26 163.081 361.248 164.28 368.109 170.585C377.969 179.645 392.772 182.95 405.548 178.943C409.613 189.02 412.604 200.339 409.148 210.641C405.692 220.943 393.453 228.806 383.669 224.08C386.223 237.219 388.777 250.359 391.331 263.498C416.347 263.799 441.36 264.31 466.368 265.031C479.622 265.413 493.475 266.016 504.994 272.582C516.514 279.149 531.932 269.846 543.315 245.945C535.948 284.945 544.676 300.528 559.728 304.765C559.759 304.47 560.929 304.611 560.963 304.316C565.444 265.776 591.596 231.557 627.992 218.02C624.773 225.436 601.745 240.085 585.754 258.792C570.134 277.065 562.658 301.528 561.884 305.921C586.685 299.418 594.953 317.895 637.032 301.628C617.804 324.745 580.752 330.437 555.472 314.157C543.546 327.458 544.213 342.186 535.764 357.927C550.115 340.09 569.173 355.904 554.055 367.465C562.079 368.236 570.755 369.293 576.575 374.87C582.395 380.447 582.54 392.185 575.033 395.121C549.678 405.036 524.322 414.951 498.967 424.866Z" fill="#FDB31A"/>
<path fill-rule="evenodd" clip-rule="evenodd" d="M457.81 336.969C458.728 335.224 459.725 333.394 461.414 332.378C463.103 331.361 465.694 331.571 466.603 333.32C467.571 335.182 466.131 337.426 464.44 338.668C462.75 339.911 460.671 340.787 459.572 342.575C465.509 346.487 471.446 350.399 477.383 354.311C482.034 357.376 487.295 361.752 486.343 367.239C485.785 370.456 483.058 372.957 480.022 374.157C476.985 375.357 473.647 375.482 470.383 375.576C448.447 376.208 426.491 376.097 404.563 375.243C403.041 375.184 401.345 375.042 400.331 373.906C399.546 373.025 399.384 371.77 399.257 370.597C397.995 358.926 396.733 347.255 395.471 335.583C395.424 335.152 395.38 334.702 395.534 334.297C396.183 332.593 398.733 333.643 400.158 334.78C410.252 342.837 426.389 341.891 435.472 332.709C437.667 330.49 441.403 330.777 444.223 332.115C447.042 333.452 449.402 335.628 452.23 336.947C451.928 335.311 453.37 333.586 455.033 333.593C456.696 333.599 458.125 335.336 457.81 336.969Z" fill="white"/>
<path fill-rule="evenodd" clip-rule="evenodd" d="M104.574 208.155C104.574 208.155 102.124 178.805 108.292 169.37C114.459 159.935 137.953 157.095 137.953 157.095C137.953 157.095 202.344 156.253 237.134 157.583C271.925 158.913 341.504 164.876 341.504 164.876C341.504 164.876 350.545 166.848 354.609 169.37C358.673 171.893 364.342 179.05 364.342 179.05C364.342 179.05 376.678 180.849 382.815 181.093C388.951 181.338 394.574 180.255 394.574 180.255C394.574 180.255 402.394 203.063 396.865 213.935C391.336 224.806 372.773 223.12 372.773 223.12L379.344 263.806C379.344 263.806 371.532 267.498 367.262 272.127C362.992 276.757 361.277 283.395 361.277 283.395L373.968 407.135C373.968 407.135 377.701 413.567 385.72 416.01C393.739 418.452 411.806 418.66 411.806 418.66C411.806 418.66 411.162 431.137 411.806 436.507C412.45 441.876 413.024 444.818 413.024 444.818L426.626 542.196C426.626 542.196 413.406 544.601 400.324 547.775C387.242 550.949 361.277 558.05 361.277 558.05C361.277 558.05 352.125 562.223 350.939 568.961C349.754 575.698 354.609 595.946 354.609 595.946L208.851 607.056C208.851 607.056 194.667 607.323 189.788 604.249C184.91 601.175 183.573 591.128 183.573 591.128L163.857 413.807C163.857 413.807 132.353 414.578 123.152 409.325C113.95 404.071 112.837 384.677 112.837 384.677C112.837 384.677 114.366 373.684 112.837 366.055C112.327 363.51 105.664 335.916 103.426 309.661C102.159 294.804 119.641 283.395 119.641 283.395L104.574 208.155Z" fill="white"/>
<path fill-rule="evenodd" clip-rule="evenodd" d="M207.423 167.334C206.289 168.931 207.238 171.315 208.876 172.39C210.514 173.465 212.578 173.586 214.535 173.674C235.798 174.631 257.062 175.588 278.326 176.545C280.398 176.638 282.692 176.658 284.262 175.303C285.832 173.948 285.624 170.715 283.576 170.389C259.931 166.63 235.937 165.069 212.005 165.732C210.324 165.779 208.396 165.963 207.423 167.334" fill="#E7EAEE"/>
<path fill-rule="evenodd" clip-rule="evenodd" d="M302.028 319.74L296.502 293.809C296.502 293.809 296.244 299.156 293.318 301.331C290.393 303.506 284.609 302.651 284.609 302.651C284.609 302.651 283.692 284.544 287.764 279.03C291.836 273.516 295.847 278.723 303.58 276.959C311.307 275.197 309.707 269.393 318.686 271.977C327.664 274.562 334.299 293.778 334.299 293.778C334.299 293.778 327.259 296.137 324.263 295.532C321.268 294.927 321.998 291.294 321.998 291.294C321.998 291.294 319.875 290.39 320.416 296.761C320.679 299.856 323.022 304.511 324.263 310.599C324.726 312.867 324.263 317.962 324.263 317.962C324.263 317.962 316.274 318.777 309.369 320.254C302.465 321.732 302.028 319.74 302.028 319.74Z" fill="#E7EAEE"/>
<path fill-rule="evenodd" clip-rule="evenodd" d="M105.852 255.239C103.192 253.807 101.03 251.623 98.9102 249.471C93.4424 243.921 87.9063 238.281 84.1125 231.476C83.7513 230.828 83.3961 230.084 83.6044 229.372C83.8127 228.66 84.8998 228.256 85.3062 228.876C91.9006 238.944 100.228 247.873 109.812 255.151C108.951 256.31 107.123 255.923 105.852 255.239Z" fill="#00160A"/>
<path fill-rule="evenodd" clip-rule="evenodd" d="M113.818 127.821C115.389 126.202 116.227 124.025 116.95 121.888C119.206 115.226 120.743 108.321 121.527 101.331C121.668 100.072 121.899 98.6221 122.991 97.9805C124.22 103.974 122.698 110.151 121.185 116.079C119.855 121.29 118.382 126.763 114.609 130.596C114.228 130.984 113.74 131.379 113.204 131.29C112.48 131.169 112.19 130.207 112.448 129.52C112.707 128.834 113.307 128.347 113.818 127.821L113.818 127.821Z" fill="#00160A"/>
<path fill-rule="evenodd" clip-rule="evenodd" d="M493.019 180.097C493.767 179.898 494.528 180.487 494.854 181.189C495.18 181.891 495.204 182.689 495.349 183.449C495.916 186.42 498.594 188.857 501.605 189.143C501.98 190.016 501.15 190.889 500.494 191.576C499 193.139 498.057 195.218 497.865 197.372C497.741 198.769 497.447 200.714 496.044 200.695C494.917 200.681 494.421 199.317 494.015 198.265C493.024 195.696 490.786 193.641 488.142 192.871C487.587 192.71 487.353 192 487.506 191.443C487.659 190.885 488.082 190.449 488.486 190.035C490.223 188.253 491.986 186.143 491.967 183.654C491.957 182.308 491.718 180.445 493.019 180.097Z" fill="#FFB61D"/>
<path fill-rule="evenodd" clip-rule="evenodd" d="M545.676 413.901C543.344 416.298 542.518 420.05 543.628 423.205C542.398 423.754 541.479 422.06 540.871 420.859C539.958 419.055 538.233 417.684 536.27 417.201C539.113 415.408 540.882 412.034 540.74 408.676C541.883 407.931 543.162 409.483 543.49 410.807C543.819 412.132 544.313 413.854 545.676 413.901Z" fill="#E7EAEE"/>
<path fill-rule="evenodd" clip-rule="evenodd" d="M525.768 418.396C527.121 420.542 529.045 422.326 531.288 423.512C532.093 423.938 531.363 425.125 530.697 425.747C529.021 427.314 527.959 429.523 527.782 431.811C526.316 430.341 524.85 428.872 523.383 427.402C522.798 426.816 522.18 425.906 522.685 425.248C524.223 423.243 525.288 420.877 525.768 418.396Z" fill="#E7EAEE"/>
<path fill-rule="evenodd" clip-rule="evenodd" d="M427.821 159.942C429.156 151.444 432.381 143.092 438.048 136.62C443.715 130.148 451.987 125.73 460.59 125.737C469.192 125.744 477.879 130.616 481.454 138.44C483.304 142.489 483.757 147.046 483.632 151.495C483.393 159.957 481.12 168.354 477.058 175.782C473.396 182.479 468.131 188.503 461.295 191.901C454.46 195.299 445.941 195.755 439.295 191.999C434.034 189.025 430.353 183.687 428.599 177.903C426.845 172.119 426.883 165.913 427.821 159.942M480.398 153.511C480.553 148.242 479.684 142.801 476.913 138.317C475.228 135.59 472.869 133.285 470.104 131.663C461.19 126.435 449.056 129.244 441.651 136.454C434.246 143.663 431.037 154.319 430.706 164.649C430.529 170.159 431.122 175.809 433.465 180.799C435.807 185.789 440.094 190.057 445.433 191.429C452.42 193.223 459.792 189.845 465.27 185.152C474.411 177.323 480.043 165.541 480.398 153.511Z" fill="#FFB61D"/>
<path fill-rule="evenodd" clip-rule="evenodd" d="M515.848 154.041C514.425 155.901 512.938 158.344 514.03 160.415C514.42 161.156 513.41 162.018 512.605 161.784C511.801 161.551 511.344 160.701 511.13 159.891C510.916 159.081 510.846 158.212 510.416 157.494C509.987 156.775 509.011 156.275 508.3 156.718C507.289 156.598 507.185 155.074 507.773 154.242C508.36 153.41 509.327 152.838 509.688 151.885C509.974 151.131 509.821 150.285 509.956 149.49C510.092 148.695 510.768 147.846 511.549 148.049C511.522 149.446 511.685 150.896 512.394 152.101C513.103 153.306 514.46 154.207 515.848 154.041Z" fill="#FFB61D"/>
<path fill-rule="evenodd" clip-rule="evenodd" d="M388.602 151.288C389.714 149.995 391.111 148.888 392.75 148.417C394.389 147.946 396.291 148.194 397.571 149.321C398.964 150.548 399.401 152.597 399.104 154.429C398.808 156.261 397.884 157.925 396.912 159.506C395.651 161.557 394.281 163.542 392.81 165.448C392.351 166.044 391.847 166.658 391.143 166.923C390.214 167.274 389.178 166.933 388.261 166.55C385.041 165.204 382.047 163.315 379.446 160.988C377.064 158.857 374.866 155.733 375.832 152.686C376.447 150.745 378.325 149.341 380.339 149.041C382.353 148.741 384.44 149.451 386.042 150.708C386.809 151.31 387.967 152.026 388.602 151.288M378.428 152.416C376.907 154.508 378.558 157.439 380.474 159.177C382.866 161.344 385.705 162.946 388.518 164.529C388.879 164.732 389.283 164.943 389.688 164.855C390.05 164.777 390.317 164.481 390.556 164.199C392.461 161.941 394.168 159.516 395.65 156.96C396.79 154.994 397.627 152.106 395.79 150.768C394.337 149.709 392.219 150.562 390.987 151.871C389.755 153.181 388.98 154.891 387.633 156.082C386.581 154.425 385.464 152.703 383.759 151.731C382.054 150.758 379.582 150.828 378.428 152.416H378.428Z" fill="#FFB61D"/>
<path fill-rule="evenodd" clip-rule="evenodd" d="M366.817 94.1029C370.304 91.3843 374.181 89.1666 378.292 87.5387C380.813 86.5407 383.689 85.7725 386.18 86.8413C390.171 88.5537 390.948 94.2851 388.848 98.0868C386.748 101.888 382.766 104.193 378.974 106.311C371.538 110.464 364.102 114.618 356.666 118.771C358.131 115.848 356.478 112.418 355.125 109.442C352.078 102.74 350.484 95.3817 350.482 88.0194C350.482 85.6938 350.656 83.2981 351.676 81.2081C352.696 79.1181 354.732 77.3847 357.057 77.33C360.778 77.2425 363.252 81.1171 364.507 84.6207C365.606 87.6889 366.382 90.8729 366.817 94.1029ZM382.577 88.7745C376.563 89.9963 370.96 93.1602 366.807 97.6787C366.398 98.1237 365.604 97.9275 365.23 97.4524C364.857 96.9772 364.785 96.3399 364.714 95.7397C364.246 91.765 363.206 87.8579 361.638 84.1758C360.763 82.1231 359.299 79.8562 357.068 79.82C355.415 79.7933 353.976 81.1173 353.366 82.6545C352.756 84.1916 352.808 85.9027 352.925 87.5522C353.577 96.7519 355.998 105.823 360.015 114.125C366.593 110.439 373.171 106.752 379.749 103.066C381.801 101.916 383.89 100.737 385.486 99.0085C387.082 97.2798 388.132 94.8776 387.668 92.5711C387.205 90.2645 384.882 88.3061 382.577 88.7745Z" fill="#FFB61D"/>
<path fill-rule="evenodd" clip-rule="evenodd" d="M320.79 549.766C339.989 547.578 359.312 546.477 378.636 546.469C382.18 546.467 385.264 543.713 386.705 540.474C388.145 537.236 388.26 533.582 388.262 530.037C388.269 516.867 387.03 503.732 385.793 490.62C385.291 485.303 384.789 479.985 384.288 474.668C383.983 471.441 383.66 468.143 382.301 465.2C379.944 460.094 374.723 456.774 369.284 455.344C363.845 453.914 358.128 454.11 352.508 454.316C333.848 454.999 315.187 455.682 296.527 456.365C307.284 452.421 318.999 452.236 330.455 452.096C339.238 451.988 348.021 451.881 356.805 451.774C365.782 451.664 376.04 452.115 381.767 459.029C385.467 463.496 386.283 469.613 386.901 475.38C388.849 493.538 390.275 511.752 391.178 529.992C391.477 536.037 391.236 543.14 386.313 546.662C383.561 548.632 379.99 548.927 376.613 549.156C356.049 550.549 335.485 551.942 314.921 553.335C310.093 553.662 305.004 553.941 300.661 551.807C299.152 551.066 297.601 549.389 298.412 547.917C305.097 551.557 313.227 550.628 320.79 549.766Z" fill="#00160A"/>
<path fill-rule="evenodd" clip-rule="evenodd" d="M239.462 258.484C239.847 259.06 239.935 259.778 240.012 260.466C240.192 262.068 240.372 263.671 240.552 265.273C240.765 267.175 240.809 269.475 239.233 270.56C238.393 271.138 237.309 271.185 236.289 271.213C214.838 271.793 193.387 272.372 171.936 272.952C170.556 272.989 168.959 272.929 168.113 271.838C167.582 271.154 167.5 270.233 167.45 269.368C167.294 266.65 167.251 263.926 167.32 261.206C167.33 260.791 167.355 260.346 167.612 260.021C167.92 259.631 168.463 259.536 168.955 259.469C191.12 256.466 213.583 255.674 235.904 257.106C237.221 257.191 238.727 257.387 239.462 258.484M238.58 268.91C236.402 267.733 238.597 264.283 237.805 261.937C237.124 259.922 234.538 259.445 232.414 259.324C212.188 258.172 191.856 258.891 171.761 261.467C171.021 261.562 170.2 261.704 169.751 262.3C169.307 262.889 169.387 263.706 169.488 264.436C169.644 265.566 169.801 266.696 169.957 267.827C170.081 268.717 170.269 269.716 171.017 270.215C171.56 270.577 172.258 270.573 172.91 270.557C194.8 270.008 216.69 269.459 238.58 268.91Z" fill="#00160A"/>
<path fill-rule="evenodd" clip-rule="evenodd" d="M279.815 296.461C279.917 294.08 280.019 291.7 280.121 289.319C280.32 284.676 280.564 279.86 282.722 275.745C284.879 271.629 289.537 268.431 294.059 269.5C296.888 270.169 299.496 272.393 302.341 271.796C304.819 271.276 306.338 268.827 308.431 267.403C313.42 264.009 320.373 267.162 324.499 271.565C328.945 276.311 331.835 282.491 332.627 288.946C332.694 289.494 332.728 290.109 332.375 290.534C332.083 290.885 331.605 291.007 331.159 291.109C329.442 291.502 327.724 291.896 326.007 292.289C324.545 292.624 323.027 292.96 321.558 292.656C320.089 292.352 318.678 291.219 318.56 289.724C318.121 298.082 324.38 306.066 322.636 314.252C321.988 313.898 321.34 313.543 320.691 313.189C322.221 304.98 314.905 297.033 316.433 288.824C316.635 287.737 317.071 286.58 318.042 286.053C319.014 285.526 320.549 286.125 320.511 287.23C320.45 288.999 322.36 290.321 324.131 290.306C325.901 290.291 327.511 289.341 329.023 288.421C329.562 288.093 329.415 287.283 329.19 286.694C327.516 282.303 325.316 278.113 322.651 274.242C320.85 271.626 318.679 269.04 315.686 267.978C312.692 266.915 308.739 267.999 307.637 270.978C306.348 274.465 301.474 274.7 297.895 273.695C294.316 272.689 290.299 271.12 287.105 273.023C284.435 274.615 283.541 278.007 283.041 281.075C282.183 286.339 281.786 291.678 281.858 297.01C282.003 297.825 283.041 298.087 283.867 298.065C288.221 297.953 292.263 294.519 293.079 290.241C294.252 291.59 294.671 293.418 295.05 295.165C296.365 301.216 297.679 307.267 298.993 313.318C299.397 315.181 298.925 318.044 297.049 317.705C296.2 311.105 294.94 304.559 293.282 298.115C290.146 298.827 287.011 299.54 283.875 300.253C282.913 300.472 281.837 300.674 280.995 300.16C279.833 299.45 279.757 297.822 279.815 296.461Z" fill="#00160A"/>
<path fill-rule="evenodd" clip-rule="evenodd" d="M371.545 460.802C373.144 462.536 370.658 465.737 372.124 467.586C372.885 468.545 372.342 470.067 371.335 470.762C370.327 471.457 369.037 471.55 367.815 471.621C346.808 472.842 325.801 474.063 304.794 475.283C303.366 475.366 301.66 475.318 300.879 474.119C300.538 473.596 300.456 472.951 300.382 472.33C300.191 470.716 299.999 469.102 299.807 467.488C299.747 466.981 299.693 466.438 299.931 465.987C300.324 465.243 301.3 465.082 302.138 465.008C324.215 463.059 346.319 461.411 368.441 460.066C369.54 459.999 370.798 459.993 371.545 460.802ZM369.134 463.529C369.065 463.131 368.975 462.695 368.657 462.446C368.339 462.198 367.896 462.215 367.494 462.245C347.906 463.673 328.318 465.101 308.73 466.528C307.147 466.644 305.505 466.776 304.122 467.556C302.739 468.336 301.696 469.961 302.111 471.493C302.24 471.968 302.514 472.419 302.934 472.674C303.45 472.986 304.094 472.963 304.696 472.931C325.377 471.809 346.057 470.687 366.738 469.565C369.196 469.432 369.549 465.956 369.134 463.529Z" fill="#00160A"/>
<path fill-rule="evenodd" clip-rule="evenodd" d="M388.119 441.992C391.837 451.776 393.023 462.309 394.178 472.712C396.861 496.881 399.545 521.049 402.228 545.218C400.232 545.382 399.312 542.819 399.063 540.831C394.998 508.312 393.689 475.374 386.813 443.331C387.248 442.885 387.684 442.438 388.119 441.992Z" fill="#00160A"/>
<path fill-rule="evenodd" clip-rule="evenodd" d="M268.179 273.638C267.601 273.391 267.613 272.488 268.056 272.042C268.5 271.596 269.171 271.489 269.796 271.409C274.467 270.816 279.176 270.527 283.885 270.544C283.635 272.554 281.041 273.141 279.018 273.234C275.621 273.391 272.223 273.548 268.825 273.705C268.607 273.715 268.38 273.724 268.179 273.638L268.179 273.638Z" fill="#00160A"/>
<path fill-rule="evenodd" clip-rule="evenodd" d="M294.533 519.42C294.145 512.227 293.757 505.033 293.369 497.84C292.324 478.478 291.247 458.918 285.858 440.292C285.17 437.915 284.383 435.501 282.859 433.55C279.043 428.667 271.979 428.106 265.781 428.106C241.888 428.107 217.994 430.379 194.529 434.882C192.144 435.34 189.665 435.865 187.763 437.373C184.739 439.77 183.942 443.983 183.662 447.831C183.149 454.856 183.656 461.954 185.163 468.834C184.301 468.691 183.439 468.547 182.576 468.403C179.414 461.817 177.974 454.415 178.436 447.124C178.636 443.958 179.218 440.734 180.85 438.013C184.907 431.247 193.838 429.623 201.684 428.783C221.588 426.651 241.568 425.215 261.573 424.479C269.625 424.182 278.724 424.408 284.25 430.272C287.03 433.222 288.438 437.186 289.543 441.085C293.382 454.632 294.441 468.788 295.481 482.829C296.497 496.549 297.513 510.269 298.529 523.989C298.768 527.213 299.004 530.488 298.351 533.655C296.225 543.974 285.235 550.252 274.774 551.5C264.312 552.748 253.779 550.357 243.245 550.181C229.078 549.945 214.827 553.712 200.855 551.359C196.831 550.681 192.552 549.255 190.339 545.826C188.805 543.447 188.528 540.498 188.293 537.677C186.636 517.778 184.979 497.879 183.322 477.979C183.211 476.647 184.202 474.661 185.225 475.521C187.052 494.688 188.879 513.856 190.706 533.024C190.954 535.619 191.222 538.288 192.429 540.599C194.179 543.953 197.712 546.086 201.375 547.036C205.038 547.985 208.877 547.908 212.66 547.859C228.668 547.649 244.683 548.048 260.66 549.053C266.003 549.389 271.404 549.791 276.682 548.894C281.96 547.998 287.197 545.646 290.473 541.411C295.139 535.381 294.944 527.034 294.533 519.42Z" fill="#00160A"/>
<path fill-rule="evenodd" clip-rule="evenodd" d="M267.368 265.859C268.858 264.696 267.605 262.315 267.899 260.449C268.314 257.808 271.6 256.901 274.256 256.594C291.311 254.623 308.487 253.691 325.656 253.805C327.084 253.814 328.773 253.973 329.492 255.208C330.356 256.69 329.551 259.276 331.186 259.795C331.954 260.039 332.938 259.588 333.52 260.145C334.482 261.066 332.69 262.31 331.364 262.429C311.272 264.232 291.137 265.552 270.982 266.386C269.748 266.437 268.441 266.469 267.368 265.859M327.384 257.538C326.915 256.358 325.344 256.185 324.075 256.205C307.888 256.451 291.709 257.251 275.577 258.603C273.686 258.762 271.453 259.156 270.665 260.882C270.286 261.864 271.008 262.993 271.962 263.439C272.915 263.884 274.017 263.827 275.067 263.76C291.182 262.738 307.297 261.716 323.412 260.693C324.404 260.631 325.438 260.555 326.293 260.049C327.148 259.542 327.751 258.462 327.384 257.538Z" fill="#00160A"/>
<path fill-rule="evenodd" clip-rule="evenodd" d="M349.105 494.013C351.591 495.988 350.528 500.314 352.69 502.638C353.695 503.719 355.201 504.141 356.617 504.555C357.527 504.822 358.654 505.49 358.365 506.394C358.068 507.319 356.72 507.17 355.816 506.815C352.862 505.658 349.532 503.735 349.369 500.567C349.25 498.255 348.563 495.974 347.385 493.98C347.717 493.419 348.595 493.607 349.105 494.013V494.013Z" fill="#00160A"/>
<path fill-rule="evenodd" clip-rule="evenodd" d="M360.859 526.771C360.05 516.347 359.24 505.922 358.431 495.497C358.312 493.965 358.176 492.376 357.417 491.04C356.659 489.703 355.086 488.696 353.602 489.094C346.887 490.896 339.913 491.731 332.962 491.567C326.884 491.423 320.666 490.535 314.818 492.199C314.927 495.094 315.036 497.99 315.145 500.885C315.176 501.731 315.224 502.628 315.705 503.324C317.054 505.275 320.401 503.788 321.162 501.541C321.922 499.295 321.236 496.837 321.366 494.469C321.389 494.05 321.473 493.573 321.83 493.351C322.589 492.879 323.317 494.005 323.512 494.877C324.07 497.375 324.626 499.99 323.968 502.464C323.31 504.938 321.015 507.179 318.477 506.852C315.846 506.513 314.77 510.108 314.706 512.76C314.579 518.051 314.452 523.343 314.325 528.635C314.285 530.301 314.884 532.602 316.54 532.414C320.813 531.93 325.087 531.445 329.36 530.961C330.393 530.843 331.504 530.741 332.412 531.246C333.321 531.751 333.801 533.127 333.057 533.852C328.037 534.292 323.018 534.732 317.998 535.172C316.532 535.3 315.011 535.422 313.628 534.919C312.244 534.417 311.04 533.101 311.166 531.635C312.4 517.239 312.677 502.761 311.992 488.329C311.847 485.259 315.586 483.7 318.608 483.134C328.197 481.336 337.977 480.556 347.73 480.812C350.999 480.898 354.564 481.222 356.935 483.475C359.349 485.768 359.823 489.383 360.156 492.696C361.403 505.114 362.651 517.533 363.898 529.951C363.966 530.621 363.982 531.417 363.446 531.825C363.126 532.068 362.697 532.094 362.296 532.111C358.134 532.284 353.971 532.457 349.809 532.63C347.604 532.722 345.23 532.769 343.394 531.544C342.135 530.704 341.303 529.369 340.571 528.044C338.816 524.864 337.414 521.49 336.398 518.004C334.806 521.99 333.799 526.208 333.417 530.483C331.405 530.701 331.031 527.682 331.499 525.714C332.464 521.652 333.429 517.59 334.394 513.529C334.541 512.91 334.775 512.193 335.381 512.002C336.274 511.722 336.959 512.79 337.285 513.667C338.644 517.32 340.004 520.973 341.363 524.626C342.533 527.77 345.907 529.66 349.24 530.047C352.572 530.434 355.912 529.596 359.161 528.763C359.804 528.599 360.534 528.362 360.784 527.747C360.908 527.442 360.885 527.1 360.859 526.771ZM315.577 488.602C318.591 488.641 321.605 488.68 324.619 488.719C326.884 488.749 329.149 488.778 331.414 488.735C339.588 488.581 347.744 487.485 355.669 485.474C353.902 483.66 351.066 483.558 348.533 483.603C339.468 483.765 330.409 484.293 321.386 485.183C318.971 485.422 315.971 486.208 315.577 488.602L315.577 488.602Z" fill="#00160A"/>
<path fill-rule="evenodd" clip-rule="evenodd" d="M302.085 480.796C301.913 479.853 303.135 479.339 304.082 479.192C315.017 477.497 326.099 476.748 337.163 476.955C337.322 476.958 337.486 476.962 337.632 477.024C338.151 477.24 338.127 478.058 337.715 478.441C337.303 478.824 336.696 478.888 336.135 478.931C325.599 479.721 314.909 479.315 304.587 481.568C303.629 481.777 302.262 481.761 302.085 480.796L302.085 480.796Z" fill="#00160A"/>
<path fill-rule="evenodd" clip-rule="evenodd" d="M546.641 458.154C547.244 456.73 547.911 455.226 549.193 454.36C550.274 453.629 551.629 453.468 552.926 453.327C556.776 452.909 560.627 452.491 564.477 452.073C566.381 451.866 568.838 451.063 568.766 449.15C568.532 442.969 569.011 435.85 573.921 432.089C578.412 428.647 585.138 429.592 589.747 432.874C594.356 436.157 597.276 441.27 599.794 446.337C600.909 448.581 603.963 448.989 606.431 448.557C608.899 448.125 611.401 447.154 613.836 447.745C617.585 448.655 619.48 452.75 620.769 456.386C627.235 474.636 631.623 493.662 639.666 511.274C642.673 517.861 641.721 526.081 637.288 531.806C636.741 527.26 637.502 522.563 639.459 518.423C640.38 516.472 637.313 515.19 635.155 515.196C613.169 515.252 591.09 515.315 569.347 518.576C568.683 518.676 567.978 518.798 567.483 519.251C567.001 519.692 566.814 520.36 566.648 520.991C565.974 523.551 565.299 526.112 564.625 528.673C564.203 530.277 564.468 532.768 566.119 532.601C587.637 530.422 609.271 529.382 630.899 529.489C633.173 529.5 636.278 530.403 635.984 532.658C612.943 532.93 589.818 533.208 567.027 536.6C563.398 537.14 560.892 532.646 561.304 529C561.716 525.354 563.807 522.084 564.396 518.462C564.904 515.341 564.268 512.157 563.584 509.07C562.498 504.162 561.283 499.282 559.943 494.437C558.634 489.708 557.207 485.014 555.779 480.32C553.619 473.221 551.46 466.121 549.3 459.021C546.33 463.37 545.007 468.815 545.65 474.041C546.098 477.68 547.448 481.136 548.458 484.66C549.904 489.699 550.662 494.904 551.417 500.091C552.903 510.307 554.389 520.523 555.876 530.74C556.095 532.243 555.663 534.458 554.16 534.236C547.478 513.565 549.312 490.711 541.427 470.469C543.165 466.364 544.903 462.259 546.641 458.154ZM596.407 461.904C598.585 460.693 599.713 457.866 598.966 455.489C598.219 453.111 595.678 451.436 593.199 451.687C587.12 452.303 581.04 452.919 574.961 453.535C574.4 453.592 573.772 453.685 573.434 454.137C573.169 454.494 573.163 454.976 573.189 455.42C573.351 458.198 574.315 460.925 575.935 463.187C577.194 464.945 578.935 467.049 577.952 468.975C576.724 471.381 572.687 470.032 571.686 467.523C570.685 465.014 571.397 462.182 571.211 459.486C571.025 456.791 569.087 453.689 566.423 454.137C562.054 454.873 557.684 455.608 553.315 456.344C552.687 456.449 551.869 456.837 552.053 457.446C557.373 475.057 562.694 492.668 568.014 510.28C568.677 512.475 570.172 515.191 572.405 514.67C592.898 509.884 614.507 514.41 635.315 511.265C629.082 491.719 622.632 472.242 615.968 452.839C615.771 452.267 615.549 451.658 615.06 451.301C614.519 450.905 613.791 450.917 613.121 450.945C610 451.077 606.879 451.21 603.757 451.342C602.522 451.394 600.839 451.983 601.11 453.189C601.958 456.97 602.806 460.752 603.654 464.533C603.8 465.183 603.943 465.88 603.701 466.501C603.041 468.191 600.552 467.765 598.892 467.033C597.802 466.553 596.657 466.028 595.983 465.046C595.31 464.065 595.367 462.483 596.407 461.904ZM588.363 434.47C585.969 432.713 582.821 431.447 580.058 432.535C579.095 432.914 578.26 433.551 577.438 434.18C575.974 435.301 574.466 436.473 573.603 438.101C572.799 439.616 572.634 441.377 572.484 443.086C572.353 444.579 572.221 446.072 572.09 447.565C572.009 448.491 571.975 449.555 572.647 450.198C573.291 450.815 574.302 450.77 575.19 450.686C581.548 450.081 587.906 449.476 594.264 448.871C595.17 448.785 596.278 448.539 596.516 447.66C596.61 447.313 596.535 446.945 596.45 446.596C595.278 441.778 592.361 437.403 588.363 434.47M585.982 450.266C585.341 450.446 586.053 451.647 586.519 451.172C587.114 450.928 586.454 449.81 585.953 450.213L585.982 450.266Z" fill="#FFB61D"/>
<path fill-rule="evenodd" clip-rule="evenodd" d="M384.393 307.331C384.282 306.959 384.504 306.57 384.765 306.282C386.046 304.872 388.19 304.767 390.096 304.762C401.649 304.735 413.202 304.709 424.755 304.682C425.568 304.68 426.44 304.696 427.104 305.165C427.767 305.635 428.026 306.743 427.389 307.248C427.05 307.516 426.582 307.533 426.149 307.538C412.727 307.687 399.306 307.836 385.884 307.985C385.299 307.991 384.56 307.892 384.393 307.331Z" fill="#00160A"/>
<path fill-rule="evenodd" clip-rule="evenodd" d="M388.675 319.258C387.979 318.858 388.076 317.736 388.661 317.186C389.246 316.636 390.1 316.507 390.897 316.411C395.679 315.834 400.488 315.517 405.295 315.201C407.943 315.026 410.591 314.852 413.24 314.678C416.683 314.451 420.125 314.224 423.568 313.997C424.662 313.925 425.883 313.894 426.707 314.617C427.53 315.34 427.329 317.079 426.235 317.147C414.084 317.9 401.933 318.653 389.782 319.405C389.405 319.429 389.003 319.447 388.675 319.258L388.675 319.258Z" fill="#00160A"/>
<path fill-rule="evenodd" clip-rule="evenodd" d="M453.81 334.969C454.728 333.224 455.725 331.394 457.414 330.378C459.103 329.361 461.694 329.571 462.604 331.32C463.571 333.182 462.131 335.426 460.441 336.668C458.75 337.911 456.671 338.787 455.572 340.575C461.509 344.487 467.447 348.399 473.384 352.311C478.034 355.376 483.295 359.752 482.343 365.239C481.785 368.456 479.059 370.957 476.022 372.157C472.985 373.357 469.647 373.482 466.383 373.576C444.447 374.208 422.491 374.097 400.563 373.243C399.041 373.184 397.345 373.042 396.331 371.906C395.546 371.025 395.384 369.77 395.257 368.597C393.995 356.926 392.733 345.255 391.471 333.583C391.424 333.152 391.38 332.702 391.534 332.297C392.183 330.593 394.733 331.643 396.158 332.78C406.252 340.837 422.39 339.891 431.473 330.709C433.667 328.49 437.404 328.777 440.223 330.115C443.043 331.452 445.402 333.628 448.23 334.947C447.928 333.311 449.37 331.586 451.033 331.593C452.696 331.599 454.125 333.336 453.81 334.969ZM455.052 342.489C454.331 339.84 450.416 339.284 448.257 340.979C446.098 342.674 445.398 345.627 445.211 348.366C445.141 349.387 443.461 349.489 442.885 348.642C442.31 347.795 442.543 346.654 442.863 345.682C443.706 343.114 445.004 340.697 446.679 338.577C447.509 337.527 446.293 336.107 445.198 335.338C441.336 332.622 435.867 329.943 432.324 333.064C422.616 341.614 407.131 342.754 396.277 335.716C396.406 344.477 397.052 353.23 398.209 361.915C398.325 362.79 398.475 363.725 399.079 364.368C399.879 365.219 401.189 365.279 402.357 365.28C421.214 365.304 440.071 365.328 458.928 365.352C460.763 365.355 463.257 364.699 463.114 362.87C462.781 358.613 464.666 354.242 467.991 351.563C465.376 349.663 462.76 347.763 460.145 345.863C459.347 345.284 458.512 344.688 457.54 344.522C454.606 344.019 452.646 347.382 451.608 350.173C450.018 347.33 451.871 343.194 455.052 342.489ZM405.768 371.559C425.404 371.713 445.042 371.68 464.678 371.46C470.253 371.398 476.762 370.832 479.785 366.147C452.669 367.339 425.515 367.634 398.38 367.031C398.043 370.288 402.493 371.533 405.768 371.559M472.97 354.055C472.386 353.685 471.782 353.307 471.1 353.19C469.044 352.837 467.422 354.89 466.529 356.776C466.012 357.866 465.563 358.988 465.186 360.134C464.898 361.007 464.649 361.935 464.83 362.836C465.011 363.737 465.75 364.589 466.669 364.6C470.008 364.638 473.347 364.602 476.685 364.493C477.472 364.468 478.328 364.412 478.918 363.889C479.612 363.274 479.696 362.214 479.522 361.303C478.894 358.007 475.804 355.851 472.97 354.055ZM461.175 332.738C461.138 331.721 459.78 331.205 458.842 331.597C457.903 331.99 457.326 332.923 456.81 333.8C456.187 334.861 455.564 335.921 454.941 336.981C454.615 337.537 454.437 338.484 455.067 338.623C456.725 337.245 458.382 335.867 460.04 334.489C460.595 334.027 461.201 333.46 461.175 332.738ZM450.431 334.396C450.15 335.767 450.853 337.282 452.082 337.952C452.508 336.54 452.258 334.939 451.422 333.724C451.371 333.38 450.904 333.182 450.62 333.382C450.402 333.659 450.324 334.042 450.416 334.382L450.431 334.396Z" fill="#00160A"/>
<path fill-rule="evenodd" clip-rule="evenodd" d="M382.916 293.96C382.418 291.548 381.92 289.135 381.421 286.722C381.228 285.785 381.05 284.744 381.542 283.922C382.212 282.802 383.746 282.653 385.052 282.63C417.104 282.072 449.168 282.194 481.214 282.996C483.401 283.051 485.196 284.939 485.861 287.022C486.526 289.106 486.307 291.355 486.082 293.53C485.96 294.706 485.766 296.016 484.828 296.736C484.061 297.325 483.012 297.34 482.044 297.33C449.856 296.978 417.668 296.627 385.48 296.275C384.95 296.27 384.389 296.255 383.94 295.973C383.285 295.56 383.073 294.719 382.916 293.96ZM387.344 284.746C384.974 284.729 383.295 287.544 383.886 289.838C384.478 292.132 386.695 293.711 388.998 294.269C391.3 294.827 393.711 294.558 396.07 294.337C425.139 291.62 454.533 296.813 483.581 293.882C483.732 292.115 483.877 290.288 483.308 288.608C482.739 286.928 481.256 285.423 479.482 285.41C448.769 285.189 418.057 284.968 387.344 284.746Z" fill="#00160A"/>
<path fill-rule="evenodd" clip-rule="evenodd" d="M189.645 363.842C188.572 365.875 187.092 367.94 184.874 368.545C180.65 369.698 177.157 365.008 176.004 360.783C174.204 354.188 174.659 347 177.277 340.685C178.677 337.306 177.51 333.312 175.314 330.387C171.173 324.871 163.449 322.456 156.812 324.332C150.175 326.209 144.937 332.113 143.549 338.869C143.331 339.927 143.485 341.413 144.554 341.562C149.888 342.309 152.337 348.57 153.15 353.895C153.77 357.96 154.039 362.22 152.66 366.095C151.281 369.969 147.905 373.373 143.804 373.684C140.124 371.206 137.354 367.408 136.118 363.147C133.819 355.222 136.805 346.821 139.888 339.166C141.769 334.495 143.789 329.712 147.363 326.164C155.003 318.581 169.269 319.481 175.894 327.965C178.443 331.228 179.905 335.282 182.73 338.31C184.859 340.593 187.674 342.191 189.616 344.634C193.834 349.941 192.809 357.846 189.645 363.842ZM138.455 349.19C136.521 354.522 137.059 360.695 139.888 365.61C140.353 366.418 140.906 367.221 141.718 367.677C142.53 368.134 143.662 368.141 144.304 367.466C146.228 365.443 146.468 362.385 146.462 359.594C146.454 356.292 146.251 352.992 145.853 349.715C145.69 348.373 145.412 346.891 144.327 346.085C143.242 345.279 141.206 345.953 141.376 347.294C141.872 351.194 142.367 355.095 142.863 358.995C142.976 359.882 143.075 360.842 142.631 361.618C142.186 362.394 140.958 362.756 140.395 362.061C138.936 359.084 138.496 355.619 139.165 352.373C139.405 351.205 139.571 349.608 138.455 349.19M183.109 364.658C183.602 364.274 183.832 363.649 184.016 363.051C185.462 358.355 185.478 353.229 184.06 348.524C183.521 346.736 182.06 344.643 180.291 345.243C179.268 345.589 178.75 346.708 178.424 347.737C176.945 352.414 177.142 357.602 178.971 362.154C179.321 363.026 179.755 363.907 180.498 364.484C181.24 365.06 182.368 365.236 183.109 364.658ZM148.39 347.781C149.679 354.313 149.405 361.148 147.597 367.555C147.43 368.145 148.099 368.605 148.66 368.854C151.372 362.276 151.715 354.751 149.613 347.954C149.265 347.705 148.794 347.638 148.39 347.781ZM186.014 346.017C185.613 346.656 185.212 347.295 184.812 347.935C186.132 347.711 186.737 349.513 186.807 350.851C186.971 353.942 187.134 357.034 187.297 360.125C188.527 359.664 188.75 358.049 188.773 356.736C188.824 353.778 188.876 350.82 188.928 347.862C188.485 347.81 188.042 347.758 187.599 347.706C187.553 346.869 186.847 346.116 186.014 346.017Z" fill="#00160A"/>
<path fill-rule="evenodd" clip-rule="evenodd" d="M331.016 351.627C322.204 351.207 313.353 351.589 304.61 352.768C303.836 352.872 302.97 352.96 302.349 352.488C301.727 352.016 301.795 350.763 302.571 350.678C311.315 349.717 320.096 349.099 328.888 348.825C329.844 348.796 330.915 348.813 331.596 349.484C332.277 350.156 331.971 351.673 331.016 351.627Z" fill="#00160A"/>
<path fill-rule="evenodd" clip-rule="evenodd" d="M126.316 316.441C128.818 316.206 131.32 315.971 133.821 315.736C135.081 315.617 136.342 315.499 137.602 315.38C145.618 314.627 153.634 313.874 161.657 313.205C161.972 313.178 162.301 313.154 162.593 313.275C163.462 313.636 163.328 315.039 162.571 315.597C161.815 316.155 160.791 316.123 159.852 316.092C148.036 315.698 136.26 319.249 124.499 318.048C123.735 317.97 122.735 317.577 122.87 316.82C124.014 316.657 125.165 316.549 126.316 316.441Z" fill="#00160A"/>
<path fill-rule="evenodd" clip-rule="evenodd" d="M395.764 576.1C395.371 572.659 395.089 568.915 392.775 566.337C390.999 564.36 391.918 560.684 394.415 559.774C396.912 558.864 399.98 561.086 399.894 563.743C399.864 564.655 399.532 565.525 399.274 566.4C397.509 572.377 399.148 578.807 401.305 584.653C403.49 590.573 406.835 596.875 412.838 598.821C419.782 601.072 427.467 596.09 430.545 589.47C433.624 582.851 433.155 575.165 432.08 567.944C431.972 567.22 431.778 566.383 431.113 566.076C428.412 564.829 428.002 560.447 430.425 558.721C432.848 556.994 436.856 558.813 437.153 561.773C437.253 562.777 436.997 563.778 436.806 564.769C435.479 571.645 437.234 578.854 435.78 585.705C434.869 589.994 432.686 594.005 429.578 597.099C426.283 600.379 421.833 602.641 417.184 602.72C410.924 602.826 405.069 598.944 401.531 593.779C397.993 588.613 396.475 582.321 395.764 576.1Z" fill="#00160A"/>
<path fill-rule="evenodd" clip-rule="evenodd" d="M213.211 293.585C213.385 295.942 213.551 298.37 212.816 300.616C212.082 302.863 210.216 304.909 207.861 305.112C195.722 306.155 183.581 307.199 171.418 307.919C154.834 308.9 138.221 309.279 121.611 309.657C121.019 309.67 120.385 309.672 119.89 309.346C119.148 308.856 119.009 307.843 118.941 306.957C118.761 304.635 118.581 302.313 118.402 299.991C118.347 299.285 118.306 298.522 118.686 297.925C119.244 297.05 120.437 296.9 121.473 296.838C152.02 295.027 182.611 293.943 213.211 293.585ZM208.1 301.729C210.052 301.599 210.447 298.527 209.016 297.194C207.585 295.86 205.412 295.831 203.456 295.88C178.316 296.504 153.166 297.129 128.075 298.836C126.268 298.959 124.389 299.109 122.827 300.026C121.265 300.942 120.137 302.87 120.734 304.58C121.581 307.009 124.859 307.276 127.426 307.105C154.317 305.313 181.209 303.521 208.1 301.729Z" fill="#00160A"/>
<path fill-rule="evenodd" clip-rule="evenodd" d="M181.997 352.255C182.021 352.894 182.045 353.533 182.069 354.171C182.119 355.5 182.169 356.838 181.977 358.154C180.31 357.978 179.793 355.833 179.696 354.16C179.65 353.364 179.634 352.475 180.168 351.882C180.701 351.289 181.967 351.459 181.997 352.255L181.997 352.255Z" fill="#00160A"/>
<path fill-rule="evenodd" clip-rule="evenodd" d="M302.03 357.698C303.665 356.188 306.152 356.235 308.377 356.298C315.416 356.498 322.476 355.954 329.401 354.678C330.218 354.528 330.657 355.797 330.148 356.453C329.639 357.109 328.72 357.247 327.894 357.331C320.089 358.125 312.252 358.595 304.408 358.74C303.473 358.758 302.288 358.596 302.03 357.698Z" fill="#00160A"/>
<path fill-rule="evenodd" clip-rule="evenodd" d="M564.805 384.087C564.034 386.698 561.47 388.312 559.024 389.508C546.784 395.495 532.395 396.961 519.199 393.565C514.767 392.424 509.718 389.786 509.528 385.213C509.389 381.852 512.072 379.035 514.913 377.233C519.272 374.47 524.353 373.074 529.419 372.09C539.193 370.191 549.788 369.799 558.636 374.366C562.342 376.279 565.987 380.087 564.805 384.087M512.55 384.705C512.558 388.398 516.678 390.56 520.25 391.497C532.655 394.751 546.224 393.347 557.7 387.622C559.541 386.703 561.485 385.492 562.07 383.519C562.856 380.869 560.802 378.199 558.524 376.634C551.667 371.922 542.596 372.566 534.323 373.452C527.666 374.165 520.571 375.096 515.496 379.463C513.928 380.813 512.546 382.636 512.55 384.705L512.55 384.705Z" fill="#00160A"/>
<path fill-rule="evenodd" clip-rule="evenodd" d="M204.669 167.774C204.252 165.4 205.889 163.041 207.999 161.875C210.109 160.709 212.595 160.484 215.002 160.343C236.456 159.08 257.876 162.526 279.337 163.658C282.1 163.804 285.012 163.957 287.336 165.457C289.66 166.958 291.024 170.326 289.416 172.577C288.639 173.666 287.353 174.27 286.077 174.673C282.398 175.836 278.45 175.681 274.595 175.516C254.531 174.653 234.468 173.791 214.404 172.928C210.421 172.757 205.36 171.701 204.669 167.774M207.423 164.334C206.289 165.932 207.238 168.315 208.876 169.39C210.514 170.465 212.578 170.586 214.535 170.674C235.798 171.631 257.062 172.588 278.326 173.545C280.397 173.638 282.692 173.658 284.262 172.303C285.832 170.948 285.624 167.715 283.576 167.389C259.931 163.63 235.937 162.069 212.005 162.732C210.324 162.779 208.396 162.963 207.423 164.334" fill="#00160A"/>
<path fill-rule="evenodd" clip-rule="evenodd" d="M439.932 147.171C443.196 140.371 448.488 133.361 456.009 132.781C461.019 132.395 466.334 133.271 470.299 136.358C477.49 141.956 477.991 152.811 475.421 161.555C472.392 171.861 465.633 181.406 455.936 186.028C453.623 187.131 451.108 187.955 448.548 187.855C441.745 187.588 436.791 180.904 435.327 174.255C433.319 165.143 435.895 155.583 439.932 147.171M448.392 185.365C453.421 186.05 458.159 182.847 461.707 179.218C468.356 172.416 472.82 163.51 474.29 154.112C474.714 151.404 474.89 148.594 474.153 145.954C472.704 140.76 467.781 137.007 462.499 135.928C457.419 134.889 451.836 136.128 447.92 139.527C446.038 141.16 444.577 143.223 443.301 145.363C439.138 152.345 436.772 160.469 437.061 168.593C437.192 172.262 437.888 175.993 439.746 179.16C441.604 182.327 444.754 184.87 448.392 185.365Z" fill="#FFB61D"/>
<path fill-rule="evenodd" clip-rule="evenodd" d="M275.022 435.788C275.691 435.753 276.408 435.73 276.975 436.087C277.674 436.529 277.93 437.409 278.131 438.212C278.572 439.969 279.016 441.797 278.661 443.574C278.305 445.35 276.904 447.057 275.094 447.136C270.476 447.338 265.859 447.539 261.242 447.741C259.431 447.82 257.31 448.079 256.41 449.652C255.8 450.718 255.982 452.042 256.182 453.254C256.748 456.689 258.348 461.032 261.827 460.905C264.141 460.821 266.204 462.578 267.2 464.668C268.196 466.759 268.345 469.138 268.477 471.45C268.602 473.626 268.046 476.6 265.867 476.655C264.11 476.698 263.625 479.073 263.681 480.83C264.069 493.051 264.457 505.271 264.845 517.491C264.908 519.46 262.385 520.288 260.425 520.486C243.999 522.144 227.403 522.1 210.986 520.356C210.398 520.293 209.646 520.063 209.633 519.471C209.329 505.663 209.025 491.855 208.721 478.047C208.704 477.242 208.309 476.129 207.532 476.341C205.086 477.01 202.626 474.74 202.119 472.255C201.613 469.769 202.482 467.233 203.338 464.845C203.734 463.742 204.178 462.572 205.125 461.88C207.147 460.404 210.884 461.455 211.79 459.121C211.94 458.735 211.969 458.312 211.954 457.899C211.828 454.293 208.47 451.447 204.933 450.734C201.396 450.021 197.75 450.959 194.305 452.033C193.516 449.055 193.314 445.922 193.713 442.866C193.808 442.145 193.954 441.387 194.439 440.845C195.13 440.071 196.281 439.964 197.316 439.909C223.218 438.535 249.12 437.162 275.022 435.788ZM205.962 463.764C205.464 464.342 205.354 465.149 205.264 465.907C205.03 467.882 204.796 469.858 204.563 471.833C204.513 472.249 204.467 472.688 204.635 473.071C204.993 473.892 206.078 474.034 206.974 474.056C211.729 474.174 216.484 474.292 221.239 474.411C222.041 474.431 222.882 474.442 223.594 474.073C224.739 473.479 225.21 471.866 224.564 470.75C225.145 470.69 225.727 470.631 226.309 470.571C226.053 472.294 227.808 473.737 229.532 473.99C231.255 474.243 232.987 473.717 234.723 473.58C238.364 473.292 242 474.72 245.626 474.291C246.008 474.246 246.415 474.167 246.683 473.89C247.032 473.529 247.025 472.964 246.996 472.462C246.859 470.055 246.722 467.647 246.584 465.239C246.541 464.481 246.476 463.666 245.989 463.083C245.293 462.251 244.046 462.225 242.963 462.267C237.728 462.47 232.493 462.672 227.258 462.875C226.893 462.889 226.488 462.92 226.235 463.184C225.951 463.479 225.971 463.944 226.009 464.352C226.185 466.225 226.361 468.099 226.537 469.973C225.842 470.04 225.161 470.243 224.543 470.567C224.388 469.091 224.234 467.615 224.079 466.138C223.938 464.793 223.411 463.068 222.058 463.05C217.737 462.992 213.417 462.935 209.096 462.877C207.973 462.862 206.695 462.913 205.962 463.764ZM230.855 478.288C230.783 477.294 230.352 475.978 229.361 476.085C223.2 476.747 216.964 476.709 210.812 475.972C210.964 489.378 211.214 502.783 211.561 516.186C211.606 517.911 213.783 518.602 215.5 518.778C220.599 519.3 225.733 519.479 230.856 519.311C231.276 519.297 231.731 519.268 232.051 518.996C232.472 518.638 232.499 518.01 232.493 517.458C232.346 504.388 231.8 491.324 230.855 478.288ZM261.665 477.549C261.497 477.261 261.113 477.2 260.78 477.172C255.48 476.723 250.152 476.597 244.837 476.795C244.355 476.813 243.84 476.845 243.458 477.14C242.879 477.588 242.843 478.434 242.859 479.167C243.152 492.547 243.445 505.927 243.738 519.308C249.59 519.873 255.548 519.32 261.196 517.688C261.547 517.587 261.92 517.466 262.147 517.18C262.392 516.871 262.408 516.444 262.413 516.05C262.524 507.441 262.302 498.832 262.08 490.226C261.975 486.171 261.87 482.117 261.765 478.062C261.761 477.886 261.754 477.701 261.665 477.549ZM195.948 443.63C194.932 445.228 196.024 447.483 197.694 448.376C199.364 449.268 201.366 449.182 203.256 449.072C214.693 448.409 226.13 447.746 237.567 447.084C248.475 446.452 259.383 445.82 270.272 444.933C271.867 444.803 273.543 444.64 274.861 443.732C276.179 442.824 276.944 440.906 276.06 439.572C275.174 438.234 273.267 438.173 271.664 438.255C247.899 439.481 224.134 440.707 200.369 441.932C198.727 442.017 196.83 442.243 195.948 443.63M241.662 518.996C240.858 505.934 240.699 492.833 241.185 479.756C241.213 479.005 241.238 478.224 240.938 477.534C240.063 475.521 237.247 475.527 235.078 475.862C234.086 476.016 232.819 476.49 232.894 477.491C233.824 490 234.755 502.529 234.546 515.071C234.518 516.731 235.469 518.372 236.923 519.174C238.377 519.977 240.272 519.905 241.662 518.996ZM266.207 470.776C265.924 469.05 265.629 467.286 264.787 465.753C263.946 464.22 262.438 462.936 260.692 462.849C257.373 462.683 254.054 462.518 250.736 462.353C249.872 462.31 248.678 462.57 248.72 463.434C248.846 466.06 248.973 468.687 249.099 471.313C249.154 472.459 249.368 473.843 250.43 474.278C250.773 474.418 251.152 474.429 251.522 474.437C255.849 474.536 260.176 474.635 264.503 474.734C265.329 474.753 266.021 474.027 266.247 473.232C266.472 472.438 266.34 471.591 266.207 470.776ZM245.257 457.834C244.824 456.011 244.373 454.144 243.336 452.583C242.299 451.021 240.54 449.801 238.671 449.939C235.79 450.151 232.909 450.362 230.028 450.574C228.233 450.706 226.2 450.964 225.148 452.425C223.876 454.19 224.749 456.655 224.405 458.804C224.284 459.559 224.874 460.282 225.58 460.576C226.286 460.869 227.08 460.834 227.843 460.795C233.001 460.53 238.158 460.264 243.315 459.999C244.072 459.96 244.981 459.822 245.283 459.126C245.457 458.724 245.359 458.261 245.257 457.834ZM254.295 454.531C253.314 453.187 253.338 451.196 254.352 449.876C252.544 448.753 250.012 448.961 248.412 450.363C246.811 451.765 246.272 454.248 247.147 456.188C247.455 456.871 247.278 457.682 247.496 458.399C247.804 459.419 248.871 460.06 249.929 460.191C250.986 460.322 252.047 460.044 253.077 459.769C254.427 459.408 256.071 458.686 256.058 457.288C256.047 456.173 254.953 455.432 254.295 454.531ZM222.066 459.317C222.665 457.358 221.859 455.124 220.321 453.77C218.784 452.417 216.63 451.889 214.589 452.073C213.77 452.146 212.915 452.35 212.321 452.92C211.728 453.491 211.516 454.518 212.05 455.143C212.445 455.606 213.121 455.741 213.535 456.187C214.166 456.867 213.953 457.955 214.242 458.837C214.895 460.829 217.6 461.017 219.687 460.826C220.402 460.761 221.19 460.66 221.661 460.118C221.858 459.89 221.978 459.605 222.066 459.317ZM222.404 452.726C222.888 452.258 222.976 451.435 222.601 450.875C221.768 450.627 220.836 451.123 220.397 451.874C220.723 452.62 221.639 453.052 222.422 452.827M246.188 450.646C246.31 450.319 246.238 449.928 246.009 449.665C245.218 449.415 244.297 449.639 243.709 450.225C244.314 450.91 245.414 451.096 246.209 450.645L246.188 450.646Z" fill="#00160A"/>
<path fill-rule="evenodd" clip-rule="evenodd" d="M565.033 395.121C539.678 405.036 514.322 414.951 488.967 424.866C478.06 429.131 465.442 435.532 464.272 447.185C479.088 435.786 497.391 428.983 516.056 427.938C503.161 444.184 486.879 457.729 468.558 467.451C452.104 476.182 431.273 485.494 429.862 504.067C447.532 483.025 474.701 470.286 502.178 470.159C484.599 495.906 456.411 514.169 425.728 519.69C426.781 527.602 427.834 535.514 428.887 543.426C439.312 543.056 449.801 544.548 459.71 547.809C466.767 578.126 473.824 608.442 480.88 638.759C482.617 646.22 484.146 654.792 479.577 660.941C475.046 667.04 466.486 668.09 458.907 668.628C429.033 670.752 399.16 672.876 369.286 674.999C365.709 658.795 362.133 642.591 358.556 626.386C308.165 631.065 257.775 635.744 207.385 640.423C196.773 641.409 185.55 642.292 175.947 637.669C141.118 620.901 98.8867 653.357 62.1001 641.483C94.421 640.874 126.642 635.236 157.25 624.835C168.35 621.063 181.641 610.73 175.841 600.542C147.456 620.347 111.036 628.254 76.9944 622.001C78.9931 588.942 77.7077 555.685 73.1632 522.878C97.3852 519.413 121.256 513.499 144.294 505.256C150.703 502.963 157.295 500.324 161.859 495.274C166.422 490.224 168.267 482.066 164.258 476.566C129.217 495.238 88.7589 503.595 49.188 500.334C51.2529 545.108 53.3177 589.883 55.3825 634.657C49.5335 589.915 46.4316 544.814 46.1001 499.692C66.4695 497.886 86.8388 496.08 107.208 494.273C103.933 479.734 100.637 464.862 102.32 450.053C104.002 435.244 111.624 420.248 125.021 413.717C114.885 392.1 99.5678 372.934 80.7169 358.283C58.6181 341.107 30.2061 328.157 20.1145 302.051C13.442 284.79 16.715 264.713 25.9541 248.678C35.1932 232.644 49.8335 220.292 65.7456 210.844C43.8384 205.213 27.2447 183.375 27.6886 160.76C28.1326 138.145 45.5706 116.975 67.682 112.209C57.2569 99.7853 40.8414 94.0912 28.8509 83.1712C14.8829 70.4503 7.86382 49.93 12.9518 31.7355C18.0398 13.541 35.9541 -0.774139 54.8294 0.0324868C70.3339 0.695058 83.9781 10.5013 94.8006 21.6233C111.585 38.8722 124.068 60.2757 130.817 83.3776C135.315 98.7758 151.801 106.609 165.724 114.578C179.646 122.547 194.105 136.428 190.182 151.982C184.996 130.697 167.582 112.856 146.429 107.155C135.406 104.185 131.389 91.0686 127.844 80.2178C120.945 59.1024 109.167 39.5976 93.6923 23.6603C82.063 11.6831 66.8585 1.23166 50.1887 2.13147C33.028 3.05778 17.9005 17.017 13.9772 33.7488C10.0538 50.4805 16.6318 68.8142 29.1533 80.5852C41.9073 92.5748 60.1531 98.4477 70.4355 112.614C48.1345 117.146 30.5035 138.608 30.3864 161.364C30.2693 184.121 47.6784 205.763 69.9316 210.524C54.2493 219.704 39.5751 231.365 29.8998 246.746C20.2244 262.128 16.0768 281.65 21.866 298.874C35.2563 338.714 91.0677 348.223 110.763 385.352C116.098 367.832 108.278 349.41 104.259 331.541C100.241 313.673 102.512 290.727 119.172 283.118C114.303 259.651 109.434 236.185 104.565 212.718C100.937 195.232 99.1169 173.078 114.16 163.452C103.561 160.165 94.1539 153.163 87.9631 143.954C94.6486 154.187 107.525 159.993 119.62 158.229C104.335 125.095 87.3873 92.7275 68.8616 61.2901C88.8233 91.3891 106.49 123.01 121.658 155.787C191.811 153.889 262.074 156.05 331.978 162.257C341.26 163.081 351.248 164.28 358.109 170.585C367.969 179.645 382.772 182.95 395.548 178.943C399.613 189.02 402.604 200.339 399.148 210.641C395.692 220.943 383.453 228.806 373.669 224.08C376.223 237.219 378.777 250.359 381.331 263.498C406.347 263.799 431.36 264.31 456.368 265.031C469.622 265.413 483.475 266.016 494.994 272.582C506.514 279.149 514.643 293.694 509.512 305.921C512.785 295.817 516.057 285.712 519.33 275.608C530.865 293.918 536.53 315.865 535.299 337.47C539.295 331.39 543.291 325.31 547.286 319.23C533.09 296.886 531.282 267.188 542.665 243.287C553.829 261.775 560.117 283.177 560.728 304.765C564.891 265.858 592.456 230.389 629.131 216.748C622.768 231.409 616.405 246.071 610.043 260.732C604.595 273.285 597.674 287.208 584.584 291.196C575.949 293.826 563.447 293.667 561.881 302.557C586.682 296.053 613.079 295.731 638.032 301.628C618.804 324.745 581.752 330.437 556.472 314.157C544.546 327.458 534.213 342.186 525.764 357.927C540.115 340.09 562.451 328.936 585.332 328.178C573.039 342.707 559.173 355.904 544.055 367.465C552.079 368.236 560.755 369.293 566.575 374.87C572.395 380.447 572.54 392.185 565.033 395.121ZM230.342 248.702C236.992 248.625 244.44 248.862 249.082 253.624C252.624 257.257 253.573 262.616 254.345 267.63C257.875 290.562 261.181 313.528 264.261 336.524C265.034 342.292 260.198 347.615 254.673 349.444C249.148 351.273 243.141 350.47 237.38 349.649C242.184 345.502 250.293 348.474 255.464 344.795C260.101 341.496 260.074 334.721 259.519 329.057C257.437 307.822 254.602 286.66 251.022 265.626C250.389 261.908 249.614 257.952 246.98 255.253C243.473 251.658 237.868 251.418 232.845 251.412C212.229 251.386 191.612 251.361 170.995 251.335C167.442 251.331 163.703 251.373 160.618 253.136C151.741 258.21 155.013 271.611 159.426 280.835C171.927 278.301 184.701 277.112 197.456 277.298C208.755 277.462 222.845 281.131 224.75 292.27C228.936 316.74 233.122 341.21 237.308 365.68C239.503 378.511 240.713 394.099 230.459 402.118C225.335 406.125 218.536 407.08 212.083 407.896C196.216 409.902 180.35 411.908 164.483 413.914C171.092 471.775 177.7 529.637 184.308 587.498C185.045 593.952 186.395 601.371 192.07 604.532C195.427 606.402 199.499 606.249 203.336 606.04C253.891 603.283 304.397 599.632 354.823 595.089C352.806 590.493 352.766 585.069 354.715 580.443C359.822 610.344 364.93 640.245 370.037 670.146C378.98 663.982 377.605 650.602 375.231 640.004C369.22 613.171 363.209 586.338 357.199 559.505C354.765 563.969 352.332 568.433 349.898 572.897C348.704 567.324 352.048 561.557 356.686 558.244C361.325 554.93 367.042 553.571 372.616 552.376C389.751 548.702 407.073 545.896 424.493 543.972C419.43 508.262 414.368 472.553 409.306 436.843C378.184 445.391 345.226 442.701 313.069 439.944C303.544 439.128 291.441 435.922 290.532 426.406C288.249 402.484 285.966 378.562 283.682 354.64C283.385 351.521 281.578 347.321 278.603 348.303C271.293 350.717 266.945 340.302 266.347 332.626C264.47 308.553 262.593 284.479 260.716 260.405C260.469 257.248 260.406 253.604 262.76 251.486C264.408 250.003 266.783 249.731 268.991 249.53C284.743 248.089 300.495 246.649 316.247 245.209C325.242 244.386 335.46 243.961 342.006 250.186C346.626 254.579 348.176 261.241 349.151 267.541C350.948 279.153 351.543 290.95 350.923 302.683C349.675 291.214 348.427 279.745 347.179 268.276C346.617 263.115 345.931 257.643 342.671 253.604C337.107 246.709 326.754 246.825 317.924 247.551C302.151 248.849 286.378 250.147 270.604 251.445C268.48 251.62 266.178 251.871 264.634 253.34C262.625 255.252 262.681 258.416 262.882 261.181C264.572 284.447 266.262 307.712 267.952 330.978C268.271 335.369 268.705 340.063 271.482 343.48C274.258 346.898 280.281 347.971 282.875 344.413C279.321 336.601 284.237 327.035 291.513 322.482C298.788 317.929 307.718 317.128 316.273 316.445C331.029 315.268 345.784 314.091 360.54 312.914C359.528 282.373 356.235 251.909 350.696 221.858C345.592 220.431 340.945 217.414 337.563 213.334C335.033 219.852 327.496 223.995 320.637 222.637C313.778 221.279 308.387 214.577 308.532 207.586C307.718 215.631 300.709 222.609 292.661 223.387C284.613 224.166 276.397 218.66 274.057 210.92C270.203 215.218 265.202 218.922 259.452 219.446C253.702 219.969 247.342 216.338 246.407 210.641C238.856 220.437 221.307 219.443 214.911 208.857C208.332 219.715 189.601 219.448 183.334 208.407C180.52 218.615 164.81 219.431 157.269 211.998C149.729 204.565 148.261 193.115 147.212 182.579C134.765 194.572 132.519 213.838 134.881 230.96C137.244 248.083 143.4 264.577 144.893 281.797C148.304 282.654 152.044 282.113 155.071 280.324C151.801 270.443 149.651 257.168 158.527 251.733C162.087 249.553 166.493 249.442 170.667 249.393C190.559 249.163 210.45 248.933 230.342 248.702ZM427.394 414.988C453.486 413.692 480.404 417.093 505.201 408.87C509.038 407.597 512.969 405.92 515.441 402.721C509.107 399.81 502.38 394.791 502.535 387.821C502.637 383.244 505.808 379.288 509.382 376.426C513.133 373.421 517.5 371.19 522.132 369.911C522.508 368.764 520.492 368.516 519.493 369.193C518.494 369.871 516.979 370.709 516.314 369.702C516.136 369.431 516.099 369.094 516.068 368.772C513.579 343.444 509.891 318.235 505.02 293.255C503.555 285.745 501.379 277.379 494.76 273.541C491.185 271.468 486.902 271.12 482.78 270.835C451.752 268.688 420.666 267.374 389.567 266.892C382.218 266.779 373.996 267.052 368.843 272.294C364.935 276.271 363.815 282.177 363.401 287.738C362.119 304.956 365.807 322.096 368.205 339.194C371.079 359.677 372.113 380.366 374.008 400.962C374.26 403.703 374.567 406.559 376.049 408.878C378.591 412.853 383.751 414.1 388.423 414.755C395.326 415.723 402.308 416.132 409.277 415.978C415.324 415.844 421.353 415.288 427.394 414.988ZM213.251 282.128C204.418 278.245 194.301 279.285 184.716 280.398C170.218 282.081 155.72 283.764 141.222 285.447C134.254 286.256 127.279 287.066 120.385 288.366C118.723 288.68 117.056 289.025 115.488 289.658C109.343 292.142 105.68 298.767 104.828 305.34C103.975 311.912 105.436 318.538 106.836 325.016C111.189 345.148 115.049 365.468 116.096 386.039C116.303 390.111 116.407 394.237 117.526 398.158C118.646 402.079 120.931 405.851 124.504 407.815C127.253 409.326 130.482 409.639 133.612 409.845C162.301 411.73 190.974 407.104 219.352 402.493C223.39 401.837 227.638 401.088 230.785 398.476C235.646 394.441 236.373 387.342 236.338 381.024C236.273 369.357 234.86 357.698 232.137 346.352C228.952 333.083 223.95 320.03 223.818 306.385C223.759 300.366 224.549 293.881 221.409 288.746C219.553 285.712 216.507 283.559 213.251 282.128ZM76.7366 534.802C80.5932 562.512 81.8888 590.577 80.6018 618.524C80.5339 619.998 82.3239 620.748 83.7724 621.025C102.324 624.571 121.43 620.027 139.431 614.311C149.665 611.062 159.906 607.359 168.756 601.28C172.805 598.499 176.902 594.309 176.145 589.456C171.281 558.278 168.606 526.76 168.146 495.208C151.766 508.007 130.98 513.438 110.834 518.563C101.286 520.992 91.6087 523.437 81.7568 523.355C79.3752 523.335 77.3978 525.427 76.7322 527.714C76.0666 530.001 76.4083 532.443 76.7366 534.802ZM453.242 548.809C422.56 545.821 391.261 549.33 362.001 559.037C363.758 572.402 366.159 585.681 369.192 598.815C370.406 604.074 371.722 609.309 373.037 614.544C375.6 624.739 378.162 634.933 380.724 645.128C381.081 646.547 381.527 648.098 382.75 648.901C383.842 649.617 385.255 649.535 386.556 649.427C416.853 646.9 447.133 644.163 477.392 641.215C470.777 611.728 464.162 582.242 457.547 552.755C457.293 551.622 456.986 550.401 456.085 549.669C455.305 549.036 454.243 548.906 453.242 548.809ZM408.013 419.369C401.337 419.709 394.56 420.041 388.042 418.56C381.523 417.079 375.179 413.526 371.831 407.739C369.91 409.951 366.09 410.117 363.983 408.08C361.877 406.043 361.915 402.22 364.062 400.225C355.581 400.302 347.099 400.378 338.618 400.455C342.494 402.738 342.176 409.47 338.169 411.515C334.162 413.56 328.616 410.106 328.523 405.608C328.481 403.59 329.72 401.323 331.731 401.142C330.897 399.713 328.732 400.559 327.085 400.403C324.603 400.168 323.247 397.464 322.376 395.128C318.845 385.654 315.632 376.065 312.42 366.479C314.669 370.16 319.734 371.816 323.724 370.175C325.134 369.595 325.177 367.568 324.576 366.167C323.529 363.721 321.14 361.835 318.487 361.627C315.834 361.419 313.074 363.04 312.177 365.545C310.847 364.551 311.414 362.252 312.809 361.351C314.204 360.451 315.99 360.53 317.648 360.63C333.291 361.575 348.992 361.56 364.633 360.585C365.345 360.541 366.13 360.461 366.615 359.939C367.164 359.348 367.111 358.436 367.024 357.634C366.426 352.132 365.828 346.63 365.23 341.128C365.164 340.518 365.069 339.851 364.614 339.44C364.111 338.987 363.355 339.008 362.681 339.056C343.074 340.453 323.518 342.564 304.065 345.382C301.994 345.682 300.068 343.944 299.414 341.956C298.761 339.969 299.063 337.809 299.371 335.739C299.48 335.013 299.618 334.227 300.156 333.727C300.651 333.267 301.369 333.159 302.04 333.073C322.279 330.49 342.65 328.94 363.047 328.431C362.552 330.446 359.924 330.88 357.849 330.917C338.919 331.253 320.01 332.771 301.268 335.458C299.772 338.017 301.822 341.464 304.585 342.54C307.347 343.616 310.442 343.041 313.355 342.493C329.413 339.471 345.704 337.69 362.036 337.171C364.367 337.097 364.646 333.742 364.156 331.461C363.018 326.164 361.88 320.867 360.742 315.571C349.432 317.712 337.879 318.567 326.378 318.113C319.572 317.844 312.802 319.033 306.095 320.218C300.395 321.225 294.32 322.418 290.201 326.485C285.385 331.238 284.523 338.671 284.815 345.431C285.295 356.521 288.109 367.369 289.498 378.382C291.195 391.839 290.759 405.479 292.062 418.979C292.413 422.616 292.914 426.321 294.544 429.591C296.175 432.861 299.139 435.668 302.753 436.207C332.451 440.635 362.731 441.138 392.559 437.699C395.315 437.381 398.094 437.023 400.696 436.061C404.801 434.542 408.321 431.497 410.415 427.654C411.256 426.111 411.883 424.347 411.577 422.617C411.271 420.887 409.768 419.28 408.013 419.369ZM170.593 495.235C173.701 529.428 176.809 563.621 179.917 597.815C180.476 603.96 181.013 610.309 179.092 616.173C177.172 622.038 172.118 627.339 165.95 627.541C169.571 632.837 175.821 635.866 182.141 636.975C188.46 638.084 194.939 637.497 201.328 636.907C253.969 632.043 306.611 627.179 359.252 622.316C358.122 615.737 356.992 609.159 355.862 602.581C355.609 601.105 354.883 599.232 353.39 599.344C317.196 602.041 281.002 604.738 244.808 607.435C229.945 608.543 215.01 609.651 200.156 608.435C192.639 607.821 183.356 604.834 182.615 597.329C176.681 537.282 169.811 477.327 162.009 417.494C161.889 416.574 161.741 415.59 161.111 414.907C160.271 413.996 158.881 413.927 157.642 413.921C150.241 413.883 142.84 413.845 135.438 413.807C137.6 426.069 140.406 438.217 143.841 450.185C144.475 452.397 145.531 454.979 147.797 455.377C155.935 456.806 162.358 463.5 165.706 471.054C169.055 478.608 169.845 487.007 170.593 495.235ZM142.158 282.398C135.805 250.178 130.43 217.766 126.043 185.22C125.795 183.379 125.555 181.471 126.097 179.694C127.213 176.032 131.218 174.114 134.943 173.23C142.225 171.503 149.83 172.079 157.293 172.629C225.534 177.661 293.996 179.674 362.414 178.662C359.694 173.142 354.221 169.378 348.401 167.382C342.58 165.386 336.359 164.942 330.221 164.518C269.995 160.356 209.678 156.456 149.312 157.183C141.927 157.272 134.455 157.442 127.324 159.365C120.192 161.288 113.331 165.161 109.217 171.295C102.734 180.961 104.302 193.73 106.309 205.194C111.008 232.042 116.725 258.712 123.443 285.126C129.681 284.217 135.92 283.308 142.158 282.398ZM289.091 219.425C292.353 219.459 295.741 219.276 298.627 217.757C303.709 215.082 305.966 208.918 306.302 203.185C306.637 197.451 305.505 191.705 305.87 185.973C305.953 184.667 306.683 182.935 307.95 183.263C308.868 189.862 309.786 196.46 310.704 203.058C311.211 206.701 311.738 210.412 313.334 213.726C314.93 217.039 317.799 219.952 321.411 220.646C323.485 221.044 325.651 220.687 327.628 219.944C332.362 218.164 336.33 213.634 336.15 208.58C335.902 201.602 335.653 194.623 335.405 187.645C335.306 184.885 334.28 181.206 331.521 181.351C313.129 182.314 294.682 182.229 276.3 181.096C274.959 181.013 274.606 182.912 274.748 184.248C275.483 191.169 276.219 198.091 276.955 205.012C277.51 210.238 278.696 216.38 283.491 218.531C285.229 219.31 287.187 219.405 289.091 219.425ZM383.423 653.745C382.542 654.362 381.96 655.312 381.424 656.245C378.634 661.101 376.392 666.271 374.755 671.626C406.949 669.377 439.119 666.763 471.254 663.786C472.463 663.674 473.773 663.516 474.64 662.667C475.202 662.116 475.49 661.351 475.762 660.612C476.965 657.344 478.168 654.077 479.371 650.809C479.957 649.219 480.476 647.241 479.332 645.991C478.381 644.953 476.764 644.986 475.361 645.098C445.979 647.452 416.612 649.987 387.262 652.703C385.926 652.826 384.522 652.974 383.423 653.745ZM440.176 455.39C439.306 445.232 437.532 433.832 429.243 427.898C426.008 436.805 422.743 445.847 422.003 455.295C421.263 464.743 423.351 474.812 429.688 481.858C430.578 482.848 431.569 483.809 432.041 485.054C432.513 486.299 432.273 487.943 431.117 488.604C422.503 481.108 418.937 469.087 419.139 457.67C419.341 446.254 422.84 435.184 426.307 424.305C427.069 421.915 424.889 419.4 422.444 418.843C419.998 418.286 417.472 419.103 415.097 419.911C414.634 420.068 414.431 420.596 414.284 421.062C412.642 426.295 410.985 431.844 412.257 437.179C417.737 460.168 417.03 484.295 422.609 507.26C422.815 508.108 423.038 508.974 423.532 509.693C427.232 502.458 430.932 495.224 434.632 487.989C436.371 484.59 438.119 481.166 439.204 477.505C441.315 470.387 440.81 462.787 440.176 455.39ZM571.065 288.524C571.779 289.114 572.739 289.3 573.66 289.403C584.123 290.573 593.996 283.451 599.791 274.66C605.585 265.87 608.322 255.484 612.12 245.665C615.685 236.449 620.245 227.619 625.694 219.376C614.784 229.614 601.351 236.783 589.963 246.487C578.574 256.191 568.881 269.801 569.685 284.741C569.759 286.122 569.998 287.644 571.065 288.524ZM152.012 189.517C153.5 196.037 152.885 203.282 156.497 208.91C159.999 214.365 167.386 216.965 173.533 214.906C179.68 212.847 184.01 206.321 183.518 199.857C183.406 198.388 183.075 196.946 182.744 195.51C181.449 189.885 180.154 184.26 178.859 178.635C178.73 178.075 178.586 177.486 178.189 177.071C177.62 176.476 176.709 176.407 175.886 176.375C167.974 176.073 160.061 175.77 152.149 175.467C151.388 175.438 150.552 175.432 149.961 175.911C149.212 176.519 149.169 177.634 149.266 178.593C149.646 182.333 151.176 185.851 152.012 189.517ZM366.193 195.598C366.383 204.604 372.25 212.435 378.438 218.981C379.042 219.62 379.662 220.262 380.417 220.714C381.637 221.444 383.124 221.616 384.541 221.495C389.321 221.084 393.41 217.469 395.427 213.116C397.445 208.763 397.673 203.784 397.238 199.006C396.804 194.228 395.746 189.522 395.319 184.744C395.234 183.785 394.882 182.534 393.92 182.538C385.461 182.57 377.002 182.602 368.543 182.635C367.461 182.639 366.314 182.661 365.4 183.24C364.486 183.819 363.976 185.172 364.654 186.015C366.725 188.592 366.124 192.293 366.193 195.598ZM494.83 474.173C471.654 473.765 450.408 487.504 434.198 504.072C431.465 506.865 428.797 509.795 426.979 513.253C426.657 513.865 426.403 514.717 426.93 515.164C427.211 515.402 427.612 515.416 427.98 515.415C441.464 515.367 454.431 509.672 465.386 501.811C476.341 493.95 485.571 483.974 494.83 474.173ZM208.058 213.271C211.368 211.365 213.499 207.57 213.403 203.751C213.354 201.814 212.782 199.935 212.321 198.053C211.137 193.21 210.677 188.191 210.96 183.214C211.02 182.154 211.111 181.065 210.792 180.052C210.474 179.039 209.628 178.108 208.568 178.05C199.81 177.572 191.052 177.093 182.294 176.615C181.979 176.598 181.636 176.589 181.381 176.775C180.987 177.064 181.009 177.651 181.082 178.134C182.16 185.261 185.609 191.974 185.83 199.179C185.912 201.829 185.557 204.546 186.299 207.092C187.25 210.353 189.966 212.927 193.116 214.195C196.267 215.464 199.802 215.536 203.145 214.933C204.855 214.625 206.552 214.137 208.058 213.271ZM558.493 310.84C564.836 312.629 570.443 316.37 576.597 318.73C590.238 323.962 606.475 321.778 618.248 313.127C623.303 309.412 628.359 305.697 633.414 301.982C627.252 303.441 620.877 303.999 614.555 303.635C603.992 303.026 593.56 299.862 583.009 300.655C574.033 301.329 565.304 304.955 558.493 310.84ZM377.37 262.03C376.123 255.124 374.876 248.218 373.63 241.312C371.959 232.056 370.288 222.801 368.617 213.545C368.499 212.888 368.355 212.184 367.868 211.727C367.382 211.27 366.433 211.269 366.167 211.881C364.499 215.733 361.082 218.786 357.068 220.013C354.632 220.757 354.423 224.08 354.706 226.611C356.704 244.469 359.068 262.285 361.798 280.046C362.592 272.782 368.817 266.474 376.069 265.583C377.48 265.41 377.622 263.429 377.37 262.03ZM244.115 205.859C243.34 198.414 242.363 190.99 241.184 183.598C240.941 182.074 240.292 180.174 238.75 180.106C230.778 179.756 222.807 179.407 214.836 179.057C214.551 179.045 214.252 179.035 214 179.169C213.357 179.51 213.462 180.448 213.651 181.151C215.49 187.977 216.465 195.034 216.548 202.102C216.568 203.841 216.548 205.647 217.276 207.227C218.347 209.552 220.786 210.886 223.104 211.972C227.144 213.864 231.561 215.528 235.969 214.841C240.377 214.154 244.577 210.296 244.115 205.859ZM247.562 205.901C248.366 209.796 249.84 214.327 253.656 215.447C256.877 216.392 260.359 216.653 263.59 215.742C266.82 214.831 269.766 212.662 271.212 209.633C272.24 207.477 272.473 205.036 272.607 202.651C272.974 196.117 272.721 189.547 271.854 183.06C271.807 182.713 271.756 182.356 271.58 182.052C271.115 181.247 270.019 181.134 269.089 181.114C260.972 180.937 252.855 180.76 244.738 180.583C244.075 180.569 243.149 181.258 243.71 181.612C244.618 189.762 245.904 197.87 247.562 205.901ZM520.306 286.515C513.966 300.851 512.098 317.127 515.028 332.526C516.198 338.678 518.498 345.206 523.824 348.501C525.391 349.471 528.003 349.757 528.583 348.008C535.319 327.685 532.176 304.333 520.306 286.515ZM109.314 466.504C112.003 468.35 115.036 469.695 118.209 470.451C122.219 471.407 126.384 471.418 130.505 471.517C140.135 471.749 149.753 472.487 159.306 473.727C160.639 473.899 161.741 472.457 161.706 471.114C161.67 469.77 160.853 468.584 160.006 467.54C154.911 461.264 147.471 456.938 139.496 455.615C133.846 454.678 128.069 455.203 122.345 455.039C116.62 454.874 110.645 453.905 106.08 450.447C105.839 453.735 105.819 457.04 106.023 460.331C106.105 461.663 106.24 463.044 106.918 464.193C107.487 465.156 108.391 465.871 109.314 466.504ZM341.005 211.084C341.904 212.714 343.347 213.971 344.825 215.103C346.426 216.33 348.156 217.479 350.122 217.929C354.965 219.038 359.917 215.45 361.958 210.921C363.999 206.391 363.792 201.199 363.319 196.254C362.962 192.515 362.476 188.788 361.861 185.082C361.758 184.465 361.64 183.819 361.251 183.327C360.57 182.465 359.322 182.365 358.224 182.336C352.32 182.179 346.417 182.022 340.513 181.865C339.206 181.831 337.349 182.456 337.738 183.704C339.475 189.294 340.233 195.187 339.965 201.034C339.81 204.447 339.356 208.092 341.005 211.084M549.934 314.869C556.202 304.754 558.079 292.018 554.994 280.526C552.267 270.365 545.927 261.363 543.918 251.036C539.233 265.25 534.516 280.551 538.754 294.904C540.926 302.26 545.312 308.748 549.934 314.869ZM446.096 474.005C464.738 469.203 481.946 458.967 495.062 444.876C498.986 440.66 503.003 436.531 507.109 432.492C497.049 433.871 487.229 436.982 478.21 441.647C464.452 448.764 452.379 459.846 446.096 474.005ZM559.673 350.268C566.529 343.825 573.385 337.381 580.241 330.937C557.054 333.893 535.401 347.291 522.407 366.721C525.757 369.301 530.562 367.782 534.468 366.166C539.902 363.919 545.382 361.647 550.219 358.305C553.625 355.951 556.656 353.104 559.673 350.268ZM108.721 491.096C108.779 491.691 108.85 492.321 109.21 492.798C109.999 493.843 111.608 493.586 112.865 493.219C127.253 489.015 141.439 484.119 155.358 478.555C156.362 478.154 157.532 477.519 157.552 476.439C146.874 475.698 136.196 474.958 125.518 474.217C122.907 474.036 120.285 473.853 117.725 473.307C113.873 472.485 110.201 470.834 107.029 468.499C107.262 476.05 107.992 483.576 108.721 491.096ZM446.029 418.849C445.168 419.471 444.82 420.569 444.523 421.589C443.507 425.092 442.486 428.808 443.429 432.331C443.91 434.126 444.876 435.747 445.83 437.342C448.469 441.754 451.108 446.165 453.748 450.577C453.993 450.987 454.259 451.418 454.683 451.641C455.944 452.302 457.188 450.748 457.773 449.45C461.571 441.025 465.456 432.116 464.594 422.915C464.462 421.5 464.078 419.894 462.814 419.246C462.233 418.948 461.558 418.91 460.907 418.877C456.994 418.683 453.081 418.489 449.168 418.294C448.085 418.241 446.908 418.213 446.029 418.849ZM505.834 387.658C505.734 393.588 510.907 398.546 516.581 400.272C522.255 401.998 528.344 401.255 534.24 400.622C544.609 399.509 555.575 398.591 564.099 392.583C565.99 391.25 567.778 389.605 568.622 387.451C569.94 384.09 568.615 380.122 566.138 377.496C563.66 374.87 560.225 373.369 556.787 372.268C544.502 368.335 530.862 368.789 518.865 373.528C512.536 376.028 505.949 380.854 505.834 387.658ZM107.745 448.231C108.862 449.273 111.126 449.539 111.561 448.075C113.053 443.059 116.407 438.758 120.359 435.326C124.31 431.894 128.866 429.244 133.392 426.615C134.612 425.906 134.535 424.147 134.299 422.755C133.843 420.059 133.386 417.363 132.929 414.667C132.813 413.984 132.584 413.17 131.916 412.987C131.369 412.837 130.828 413.207 130.382 413.556C127.135 416.092 123.889 418.627 120.642 421.162C114.137 426.242 107.166 432.07 105.755 440.202C105.263 443.035 105.643 446.27 107.745 448.231M133.07 430.083C125.779 434.636 118.061 439.677 114.748 447.609C114.541 448.103 114.351 448.622 114.367 449.157C114.399 450.212 115.249 451.102 116.224 451.507C117.199 451.913 118.285 451.931 119.341 451.943C125.583 452.017 131.824 452.09 138.066 452.164C138.37 452.167 138.699 452.163 138.938 451.976C139.317 451.681 139.279 451.107 139.203 450.633C138.208 444.341 137.212 438.049 136.217 431.756C136.075 430.861 135.786 429.79 134.913 429.547C134.277 429.369 133.63 429.733 133.07 430.083ZM443.175 419.235C438.58 418.05 433.623 418.308 429.176 419.965C430.036 422.792 431.563 425.413 433.596 427.556C440.448 434.78 442.474 445.268 443.251 455.194C443.667 460.495 443.813 465.818 443.69 471.135C446.7 466.492 449.709 461.849 452.719 457.206C453.018 456.745 453.327 456.256 453.359 455.707C453.392 455.157 453.143 454.634 452.89 454.145C449.919 448.41 445.555 443.465 442.8 437.624C440.045 431.783 439.2 424.325 443.175 419.235ZM135.278 176.203C132.743 176.606 129.853 177.25 128.649 179.516C127.817 181.083 128.062 182.979 128.33 184.733C129.432 191.957 130.533 199.182 131.635 206.406C137.272 196.268 142.551 185.936 147.829 175.607C146.852 174.502 145.121 174.642 143.665 174.873C140.869 175.317 138.074 175.76 135.278 176.203ZM482.278 421.496C483.059 422.531 485.096 421.385 484.616 420.18C492.146 422.342 500.354 420.803 507.466 417.519C514.578 414.234 520.787 409.313 526.898 404.412C524.332 404.053 521.765 403.695 519.199 403.336C518.675 403.263 517.996 403.273 517.796 403.762C516.414 407.145 513.439 409.679 510.154 411.279C506.868 412.879 503.253 413.654 499.679 414.416C497.199 414.944 494.718 415.473 492.238 416.001C488.396 416.819 484.064 417.998 482.278 421.496ZM346.062 369.11C346.545 368.988 347.062 368.843 347.371 368.452C347.849 367.847 347.61 366.976 347.485 366.214C347.359 365.452 347.552 364.438 348.313 364.306C349.006 364.444 349.326 365.267 349.343 365.973C349.36 366.68 349.204 367.417 349.46 368.076C350.029 369.544 352.054 369.602 353.616 369.403C354.54 369.285 355.464 369.167 356.388 369.05C356.677 369.013 356.986 368.967 357.201 368.77C357.885 368.144 356.934 367.122 356.722 366.22C356.559 365.522 356.885 364.768 356.671 364.085C356.307 362.921 354.758 362.742 353.539 362.783C344.214 363.092 334.888 363.402 325.563 363.711C325.723 365.476 326.206 367.211 326.98 368.804C327.147 369.148 327.344 369.502 327.675 369.692C328.011 369.885 328.423 369.872 328.81 369.854C331.128 369.747 333.446 369.639 335.764 369.531C335.961 369.522 336.169 369.51 336.334 369.401C336.757 369.121 336.61 368.476 336.416 368.008C336.081 367.201 335.746 366.395 335.411 365.589C335.12 364.887 336.39 364.472 336.924 365.011C337.459 365.551 337.479 366.397 337.731 367.113C338.254 368.6 339.834 369.507 341.399 369.698C342.964 369.889 344.535 369.498 346.062 369.11ZM481.496 418.476C482.004 417.935 480.883 417.37 480.146 417.46C475.947 417.975 471.748 418.49 467.549 419.005C466.987 419.074 466.246 419.382 466.38 419.931C467.759 425.581 467.242 431.678 464.929 437.014C464.489 438.031 464.2 439.583 465.254 439.924C469.632 432.064 475.117 424.821 481.496 418.476ZM338.418 373.372C338.286 372.915 338.138 372.436 337.79 372.113C337.396 371.745 336.826 371.652 336.29 371.593C333.539 371.292 330.734 371.481 328.048 372.148C328.889 374.874 329.729 377.599 330.569 380.325C330.728 380.841 330.943 381.421 331.444 381.623C331.701 381.727 331.988 381.709 332.263 381.69C334.98 381.499 337.696 381.309 340.413 381.118C339.823 378.517 339.158 375.934 338.418 373.372ZM320.732 382.902C321.033 383.067 321.403 383.017 321.742 382.961C324.202 382.56 326.661 382.16 329.12 381.759C328.233 378.915 327.345 376.071 326.458 373.227C326.327 372.81 326.165 372.352 325.781 372.144C325.477 371.98 325.108 372.015 324.764 372.055C322.571 372.31 320.379 372.565 318.186 372.82C317.774 372.868 317.286 372.971 317.133 373.357C317.029 373.619 317.127 373.913 317.225 374.177C318.191 376.784 319.157 379.391 320.123 381.998C320.252 382.346 320.405 382.724 320.732 382.902ZM348.362 371.541C347.842 371.089 347.073 371.12 346.387 371.177C344.221 371.355 342.055 371.533 339.889 371.711C340.536 374.486 341.351 377.223 342.328 379.9C342.456 380.251 342.601 380.621 342.9 380.846C343.272 381.127 343.782 381.111 344.248 381.083C345.726 380.994 347.205 380.905 348.683 380.816C349.364 380.775 350.192 380.629 350.42 379.987C350.53 379.678 350.459 379.337 350.387 379.017C349.938 377.014 349.488 375.011 349.038 373.009C348.918 372.474 348.776 371.901 348.362 371.541ZM335.442 391.48C335.228 391.514 335 391.554 334.844 391.705C334.54 391.998 334.679 392.502 334.839 392.893C335.408 394.285 335.977 395.678 336.546 397.07C336.757 397.587 336.994 398.136 337.466 398.435C337.901 398.711 338.449 398.717 338.965 398.714C340.931 398.702 342.896 398.69 344.861 398.679C345.148 398.677 345.461 398.667 345.683 398.483C346.084 398.151 345.934 397.513 345.75 397.026C344.993 395.033 344.237 393.04 343.481 391.047C343.239 390.407 342.349 390.398 341.673 390.504C339.596 390.829 337.519 391.155 335.442 391.48ZM351.977 371.147C351.564 371.148 351.099 371.171 350.821 371.477C350.485 371.845 350.591 372.421 350.719 372.903C351.278 375.015 351.836 377.128 352.395 379.24C352.493 379.611 352.608 380.008 352.906 380.251C353.301 380.574 353.874 380.513 354.378 380.436C356.242 380.152 358.105 379.867 359.968 379.583C359.768 377.42 359.425 375.272 358.941 373.155C358.79 372.493 358.58 371.771 358.007 371.407C357.578 371.135 357.039 371.128 356.531 371.13C355.013 371.136 353.495 371.141 351.977 371.147ZM355.769 398.43C355.165 396.238 354.562 394.045 353.958 391.852C353.727 391.015 353.401 390.066 352.591 389.75C352.192 389.595 351.748 389.629 351.321 389.666C349.333 389.839 347.345 390.012 345.357 390.185C345.881 392.149 346.502 394.087 347.216 395.99C347.576 396.948 348.121 398.034 349.131 398.197C351.323 398.552 353.558 398.63 355.769 398.43ZM359.23 398.278C361.032 398.425 363.01 398.525 364.467 397.454C363.835 394.998 363.203 392.542 362.572 390.086C362.43 389.533 362.239 388.917 361.733 388.654C361.361 388.46 360.914 388.513 360.499 388.571C358.713 388.82 356.928 389.068 355.142 389.317C355.566 391.917 356.287 394.468 357.285 396.906C357.438 397.281 357.611 397.669 357.931 397.915C358.293 398.194 358.775 398.241 359.23 398.278ZM519.818 363.314C521.194 360.489 522.57 357.664 523.947 354.839C524.091 354.542 524.24 354.221 524.187 353.895C524.136 353.578 523.905 353.324 523.684 353.09C521.725 351.019 519.765 348.947 517.806 346.875C516.992 347.987 517.086 349.499 517.216 350.871C517.642 355.374 518.069 359.878 518.495 364.382C519.094 364.515 519.549 363.866 519.818 363.314ZM361.21 370.82C360.953 370.802 360.66 370.797 360.48 370.982C360.278 371.19 360.323 371.525 360.382 371.808C360.77 373.678 361.157 375.548 361.545 377.418C361.688 378.111 361.859 378.852 362.382 379.329C364.074 380.872 367.334 378.218 368.907 379.883C369.184 377.227 368.985 374.523 368.323 371.937C368.276 371.755 368.221 371.563 368.081 371.438C367.92 371.293 367.687 371.271 367.471 371.256C365.384 371.111 363.297 370.966 361.21 370.82ZM322.277 384.689C322.052 384.72 321.817 384.754 321.631 384.886C321.219 385.178 321.235 385.784 321.294 386.285C321.452 387.622 321.625 389.007 322.325 390.158C323.024 391.308 324.407 392.16 325.707 391.812C327.571 391.312 329.435 390.812 331.299 390.312C331.218 388.531 330.857 386.763 330.234 385.092C330.078 384.675 329.883 384.236 329.499 384.01C329.102 383.776 328.604 383.831 328.147 383.893C326.19 384.158 324.234 384.424 322.277 384.689ZM365.746 369.06C366.307 368.975 366.905 368.873 367.322 368.488C368.563 367.341 367.144 365.01 368.15 363.653C368.543 363.122 367.581 362.648 366.921 362.676C363.978 362.8 361.034 362.925 358.09 363.049C358.204 364.267 358.415 365.476 358.722 366.66C359.064 367.98 360.351 368.883 361.682 369.176C363.014 369.468 364.398 369.265 365.746 369.06ZM341.952 384.917C341.572 383.096 339.135 382.67 337.306 383.011C335.477 383.352 333.435 384.012 331.881 382.99C331.979 384.912 332.428 386.817 333.199 388.581C333.361 388.951 333.557 389.338 333.909 389.537C334.307 389.761 334.798 389.69 335.248 389.612C337.05 389.301 338.853 388.99 340.655 388.678C341.549 388.524 342.726 387.817 342.257 387.041C341.882 386.423 342.099 385.624 341.952 384.917ZM330.815 392.393C329.343 392.642 327.87 392.892 326.397 393.141C325.599 393.276 324.617 393.596 324.532 394.4C324.317 396.434 326.342 398.073 328.346 398.478C330.35 398.883 332.431 398.487 334.465 398.688C334.382 396.96 334.02 395.245 333.398 393.63C333.251 393.246 333.075 392.849 332.749 392.598C332.22 392.19 331.474 392.281 330.815 392.393ZM369.631 388.448C367.677 388.241 365.689 388.345 363.767 388.754C364.829 391.284 365.584 393.943 366.009 396.654C366.203 397.897 367.978 397.921 369.197 397.611C369.652 397.495 370.148 397.35 370.407 396.96C370.631 396.623 370.62 396.188 370.601 395.784C370.497 393.552 370.393 391.319 370.288 389.087C370.281 388.946 370.272 388.797 370.191 388.681C370.071 388.51 369.839 388.47 369.631 388.448ZM337.715 408.449C339.558 406.609 338.614 402.896 336.116 402.161C333.618 401.425 330.812 404.035 331.365 406.58C331.937 409.21 335.81 410.35 337.715 408.449ZM352.201 386.885C353.374 385.355 351.619 383.096 349.72 382.763C347.821 382.43 345.896 383.158 343.969 383.13C343.259 383.119 343.229 384.188 343.46 384.859C343.758 385.728 344.057 386.597 344.355 387.466C344.477 387.822 344.699 388.248 345.074 388.225C346.449 388.139 347.823 388.053 349.198 387.967C350.295 387.898 351.533 387.758 352.201 386.885ZM371.201 401.659C371.059 401.275 370.849 400.9 370.518 400.658C370.221 400.442 369.85 400.35 369.485 400.306C366.6 399.958 363.799 402.836 364.226 405.71C365.453 407.17 367.766 407.573 369.415 406.615C371.064 405.657 371.86 403.449 371.201 401.659ZM353.393 384.282C353.33 385.546 354.441 386.625 355.66 386.966C356.879 387.307 358.176 387.087 359.422 386.865C360.059 386.751 360.774 386.587 361.108 386.031C361.821 384.847 360.407 382.676 361.712 382.222C360.836 382.101 359.96 381.981 359.084 381.861C357.928 381.702 356.732 381.546 355.61 381.866C354.487 382.186 353.451 383.116 353.393 384.282ZM363.861 385.9C365.188 387.053 367.41 386.894 368.643 385.641C369.876 384.387 370.036 382.263 369.106 380.77C366.784 381.201 364.462 381.632 362.139 382.062C362.432 383.46 362.783 384.962 363.861 385.9ZM543.315 363.702C541.506 364.372 539.698 365.042 537.889 365.712C536.991 366.045 536.08 366.384 535.302 366.943C538.26 368.097 541.991 366.589 543.315 363.702ZM375.224 220.173C375.176 219.374 374.331 218.721 373.547 218.877C373.597 219.69 374.408 220.373 375.217 220.286L375.224 220.173Z" fill="#00160A"/>
</svg>
